<svg xmlns="http://www.w3.org/2000/svg" width="301" height="64" viewBox="0 0 301 64" fill="none"><path d="M7.86719 20.4219C7.86719 19.8229 7.9349 19.1094 8.07031 18.2812C8.20573 17.4479 8.38281 16.6198 8.60156 15.7969L9.25781 15.9375C9.14844 16.4635 9.04688 16.9844 8.95312 17.5C8.85938 18.0104 8.78646 18.487 8.73438 18.9297C8.68229 19.3724 8.65625 19.7552 8.65625 20.0781C8.65625 20.6354 8.78385 21.1016 9.03906 21.4766C9.29948 21.8568 9.72917 22.1406 10.3281 22.3281C10.9323 22.5208 11.7526 22.6172 12.7891 22.6172C13.3151 22.6172 13.8177 22.5938 14.2969 22.5469C14.776 22.5052 15.2031 22.4375 15.5781 22.3438C15.9531 22.2552 16.2474 22.1406 16.4609 22C16.6745 21.8594 16.7812 21.6901 16.7812 21.4922C16.7552 21.2474 16.5964 21.0339 16.3047 20.8516C16.0182 20.6693 15.6224 20.4974 15.1172 20.3359C14.6172 20.1797 14.0286 20.0182 13.3516 19.8516L13.9453 18.3438C14.7474 18.6302 15.4036 18.9193 15.9141 19.2109C16.4245 19.5026 16.8021 19.8281 17.0469 20.1875C17.2917 20.5469 17.4141 20.9688 17.4141 21.4531C17.4141 22.0885 17.2161 22.6432 16.8203 23.1172C16.4297 23.5964 15.8698 23.9661 15.1406 24.2266C14.4167 24.4922 13.5521 24.625 12.5469 24.625C11.4271 24.625 10.5234 24.4505 9.83594 24.1016C9.14844 23.7578 8.64844 23.2708 8.33594 22.6406C8.02344 22.0156 7.86719 21.276 7.86719 20.4219ZM13.0938 19.5234L13.6172 17.9141H18.2812V19.8516H13.3516L13.0938 19.5234ZM17.8984 18.8828C17.8984 18.6745 17.9141 18.4974 17.9453 18.3516C17.9714 18.2057 18.013 18.0964 18.0703 18.0234C18.1276 17.9505 18.1979 17.9141 18.2812 17.9141C18.5469 17.9141 18.7865 17.8776 19 17.8047C19.2135 17.7266 19.4167 17.6068 19.6094 17.4453C19.8021 17.2786 19.9922 17.0651 20.1797 16.8047C20.3724 16.5391 20.5729 16.2161 20.7812 15.8359C21.3073 14.8932 21.776 14.2396 22.1875 13.875C22.599 13.5052 23.0234 13.3203 23.4609 13.3203C23.9505 13.3203 24.3776 13.4583 24.7422 13.7344C25.1068 14.0052 25.3906 14.3932 25.5938 14.8984C25.7969 15.4036 25.8984 16.0104 25.8984 16.7188C25.8984 17.3542 25.7839 17.9271 25.5547 18.4375C25.3307 18.9427 25.0312 19.3438 24.6562 19.6406C24.2812 19.9323 23.8698 20.0781 23.4219 20.0781C22.974 20.0781 22.474 19.9167 21.9219 19.5938C21.375 19.2656 20.7266 18.7188 19.9766 17.9531L20.6953 16.6094C21.2995 17.1562 21.8464 17.5469 22.3359 17.7812C22.8307 18.0104 23.3464 18.125 23.8828 18.125C24.3307 18.125 24.6667 18.0417 24.8906 17.875C25.1146 17.7031 25.2266 17.4375 25.2266 17.0781C25.2266 16.7396 25.138 16.4245 24.9609 16.1328C24.7839 15.8359 24.5443 15.5964 24.2422 15.4141C23.9453 15.2266 23.6146 15.1328 23.25 15.1328C22.7083 15.1328 22.2396 15.3151 21.8438 15.6797C21.4531 16.0391 21.0547 16.6016 20.6484 17.3672C20.3307 17.9818 20.0365 18.4714 19.7656 18.8359C19.4948 19.1953 19.2396 19.4557 19 19.6172C18.7604 19.7734 18.5208 19.8516 18.2812 19.8516C18.1979 19.8516 18.1276 19.8125 18.0703 19.7344C18.013 19.6562 17.9714 19.5443 17.9453 19.3984C17.9141 19.2526 17.8984 19.0807 17.8984 18.8828ZM29.7109 17.2734L29.5156 14.7812H29.6875L30.375 16.4531C30.5312 16.8385 30.7448 17.138 31.0156 17.3516C31.2865 17.5599 31.625 17.7057 32.0312 17.7891C32.4427 17.8724 32.9323 17.9141 33.5 17.9141V19.8516C32.9427 19.8516 32.4141 19.75 31.9141 19.5469C31.4141 19.3438 30.9714 19.0521 30.5859 18.6719C30.2057 18.2865 29.9141 17.8203 29.7109 17.2734ZM30.7734 19.2812C30.7734 20.1615 30.6484 20.9479 30.3984 21.6406C30.1536 22.3333 29.7969 22.9141 29.3281 23.3828C28.8594 23.8568 28.2917 24.2083 27.625 24.4375C27.3854 24.1771 27.0469 23.9818 26.6094 23.8516C26.1719 23.7214 25.6016 23.6328 24.8984 23.5859L24.9141 23.0547C25.5234 22.9089 26.0859 22.75 26.6016 22.5781C27.112 22.4115 27.5703 22.2318 27.9766 22.0391C28.3828 21.8516 28.7292 21.6484 29.0156 21.4297C29.3021 21.2161 29.5182 20.987 29.6641 20.7422C29.8151 20.5026 29.8906 20.25 29.8906 19.9844C29.8906 19.7083 29.8411 19.401 29.7422 19.0625C29.6432 18.724 29.487 18.3229 29.2734 17.8594C29.0599 17.3906 28.776 16.8333 28.4219 16.1875L29.5078 14.7812H29.6875C29.9219 15.3594 30.1172 15.8932 30.2734 16.3828C30.4349 16.8672 30.5573 17.3438 30.6406 17.8125C30.7292 18.276 30.7734 18.7656 30.7734 19.2812ZM38.0625 22.9844C38.0625 23.0417 38.0078 23.1354 37.8984 23.2656C37.7943 23.3958 37.6615 23.5339 37.5 23.6797C37.3438 23.8255 37.1797 23.9609 37.0078 24.0859C36.862 23.8932 36.6953 23.7083 36.5078 23.5312C36.3255 23.3594 36.1276 23.2005 35.9141 23.0547L36.9453 21.8984C37.1224 22.0182 37.2943 22.151 37.4609 22.2969C37.6328 22.4479 37.776 22.5859 37.8906 22.7109C38.0052 22.8359 38.0625 22.9271 38.0625 22.9844ZM40.5234 22.9844C40.5234 23.0417 40.4688 23.1354 40.3594 23.2656C40.2552 23.3958 40.1224 23.5339 39.9609 23.6797C39.8047 23.8255 39.6406 23.9609 39.4688 24.0859C39.3229 23.8932 39.1562 23.7083 38.9688 23.5312C38.7865 23.3594 38.5885 23.2005 38.375 23.0547L39.4062 21.8984C39.5833 22.0182 39.7552 22.151 39.9219 22.2969C40.0938 22.4479 40.237 22.5859 40.3516 22.7109C40.4661 22.8359 40.5234 22.9271 40.5234 22.9844ZM39.2578 25.3203C39.2578 25.3776 39.2057 25.4661 39.1016 25.5859C39.0026 25.7109 38.8776 25.8438 38.7266 25.9844C38.5755 26.125 38.4193 26.2526 38.2578 26.3672C38.1224 26.1849 37.9661 26.0104 37.7891 25.8438C37.612 25.6823 37.4219 25.5312 37.2188 25.3906L38.1953 24.2891C38.4453 24.4609 38.6849 24.6536 38.9141 24.8672C39.1432 25.0859 39.2578 25.237 39.2578 25.3203ZM33.1875 18.8828C33.1875 18.5755 33.2109 18.3385 33.2578 18.1719C33.2995 18 33.3802 17.9141 33.5 17.9141C34.4062 17.9141 35.2266 17.8542 35.9609 17.7344C36.6953 17.6146 37.3984 17.4349 38.0703 17.1953C38.7422 16.9557 39.4323 16.6562 40.1406 16.2969C40.5312 16.0938 40.888 15.9245 41.2109 15.7891C41.5339 15.6484 41.8333 15.5365 42.1094 15.4531C42.3906 15.3646 42.6615 15.2995 42.9219 15.2578C43.1875 15.2161 43.4557 15.1927 43.7266 15.1875L43.9062 15.4062L43.5469 16.4844C43.1667 16.4844 42.7812 16.5443 42.3906 16.6641C42.0052 16.7786 41.5938 16.9479 41.1562 17.1719C40.724 17.3906 40.2474 17.6589 39.7266 17.9766C39.0755 18.3724 38.4323 18.7109 37.7969 18.9922C37.1667 19.2734 36.5026 19.487 35.8047 19.6328C35.112 19.7786 34.3438 19.8516 33.5 19.8516C33.3854 19.8516 33.3047 19.763 33.2578 19.5859C33.2109 19.4036 33.1875 19.1693 33.1875 18.8828ZM36.75 14.3203C36.3698 14.3203 36.0781 14.4349 35.875 14.6641C35.6771 14.888 35.4844 15.2448 35.2969 15.7344L34.7266 15.6406C34.9557 14.8281 35.1823 14.2031 35.4062 13.7656C35.6302 13.3229 35.8776 13.0156 36.1484 12.8438C36.4193 12.6719 36.7344 12.5859 37.0938 12.5859C37.3594 12.5859 37.6927 12.6536 38.0938 12.7891C38.4948 12.9193 38.9557 13.0911 39.4766 13.3047C39.9714 13.5026 40.4844 13.6901 41.0156 13.8672C41.5521 14.0391 42.0781 14.1797 42.5938 14.2891C43.1094 14.3984 43.5807 14.4531 44.0078 14.4531L44.1641 14.625L43.7109 15.9844C43.3099 15.9635 42.8516 15.9089 42.3359 15.8203C41.8255 15.7266 41.2943 15.6068 40.7422 15.4609C40.1953 15.3099 39.6667 15.1432 39.1562 14.9609C38.7969 14.8255 38.4688 14.7109 38.1719 14.6172C37.875 14.5234 37.6068 14.4505 37.3672 14.3984C37.1328 14.3464 36.9271 14.3203 36.75 14.3203ZM56.2344 17.3672L56.5391 14.9297C56.5495 15.612 56.638 16.1745 56.8047 16.6172C56.9714 17.0547 57.25 17.3802 57.6406 17.5938C58.0365 17.8073 58.5781 17.9141 59.2656 17.9141V19.8516C58.8802 19.8516 58.526 19.7943 58.2031 19.6797C57.8802 19.5599 57.5911 19.3932 57.3359 19.1797C57.0807 18.9609 56.8594 18.7005 56.6719 18.3984C56.4896 18.0911 56.3438 17.7474 56.2344 17.3672ZM48.2188 20.4766C48.2188 20.1276 48.2396 19.7578 48.2812 19.3672C48.3281 18.9714 48.3958 18.5521 48.4844 18.1094C48.5729 17.6667 48.6823 17.2083 48.8125 16.7344L49.4922 16.9062C49.3359 17.5365 49.2188 18.1068 49.1406 18.6172C49.0677 19.1224 49.0312 19.5964 49.0312 20.0391C49.0312 20.5443 49.1484 20.9479 49.3828 21.25C49.6224 21.5521 49.987 21.7682 50.4766 21.8984C50.9714 22.0339 51.6068 22.1016 52.3828 22.1016C53.0964 22.1016 53.7057 22.0208 54.2109 21.8594C54.7214 21.7031 55.1094 21.4661 55.375 21.1484C55.6458 20.8359 55.7812 20.4453 55.7812 19.9766C55.7812 19.112 55.7656 18.276 55.7344 17.4688C55.7031 16.6615 55.651 15.8438 55.5781 15.0156C55.5052 14.1823 55.4089 13.3021 55.2891 12.375C55.1745 11.4479 55.0312 10.4349 54.8594 9.33594L55.8281 7.95312H56.0312C56.1354 8.70312 56.224 9.4974 56.2969 10.3359C56.3698 11.1693 56.4271 12.0495 56.4688 12.9766C56.5156 13.8984 56.5495 14.8724 56.5703 15.8984C56.5911 16.9245 56.6016 18.0026 56.6016 19.1328C56.6016 20.7526 56.2266 21.987 55.4766 22.8359C54.7318 23.6901 53.6562 24.1172 52.25 24.1172C50.9635 24.1172 49.9688 23.7995 49.2656 23.1641C48.5677 22.5339 48.2188 21.638 48.2188 20.4766ZM54.8594 9.33594L55.8281 7.95312H56.0469L57.2188 10.8203L56.6562 11.9297L54.8594 9.33594ZM59.6719 22.8281C59.6719 22.8854 59.6172 22.9792 59.5078 23.1094C59.4036 23.2396 59.2734 23.3776 59.1172 23.5234C58.9557 23.6693 58.7891 23.8047 58.6172 23.9297C58.4714 23.737 58.3073 23.5521 58.125 23.375C57.9375 23.2031 57.737 23.0443 57.5234 22.8984L58.5547 21.7422C58.7318 21.862 58.9062 21.9948 59.0781 22.1406C59.2448 22.2917 59.3854 22.4297 59.5 22.5547C59.6146 22.6797 59.6719 22.7708 59.6719 22.8281ZM62.1328 22.8281C62.1328 22.8854 62.0781 22.9792 61.9688 23.1094C61.8646 23.2396 61.7318 23.3776 61.5703 23.5234C61.4141 23.6693 61.25 23.8047 61.0781 23.9297C60.9323 23.737 60.7656 23.5521 60.5781 23.375C60.3958 23.2031 60.1979 23.0443 59.9844 22.8984L61.0156 21.7422C61.1927 21.862 61.3646 21.9948 61.5312 22.1406C61.7031 22.2917 61.8464 22.4297 61.9609 22.5547C62.0755 22.6797 62.1328 22.7708 62.1328 22.8281ZM58.8828 18.8828C58.8828 18.6693 58.8984 18.4922 58.9297 18.3516C58.9557 18.2057 58.9974 18.0964 59.0547 18.0234C59.112 17.9505 59.1823 17.9141 59.2656 17.9141C60.2917 17.9141 61.0286 17.8542 61.4766 17.7344C61.9297 17.6146 62.1562 17.3776 62.1562 17.0234C62.1562 16.6224 62.0781 16.2214 61.9219 15.8203C61.7708 15.4141 61.5365 14.9479 61.2188 14.4219L62.2578 12.9844H62.4688C62.6667 13.401 62.8125 13.8568 62.9062 14.3516C63.0052 14.8464 63.0547 15.3906 63.0547 15.9844C63.0547 16.7865 62.901 17.4766 62.5938 18.0547C62.2865 18.6328 61.849 19.0781 61.2812 19.3906C60.7135 19.6979 60.0417 19.8516 59.2656 19.8516C59.1771 19.8516 59.1068 19.8125 59.0547 19.7344C58.9974 19.6562 58.9557 19.5469 58.9297 19.4062C58.8984 19.2604 58.8828 19.0859 58.8828 18.8828ZM65.4609 15.8984C65.4609 15.1589 65.4479 14.4948 65.4219 13.9062C65.3958 13.3125 65.3568 12.763 65.3047 12.2578C65.2526 11.7526 65.1797 11.2604 65.0859 10.7812C64.9974 10.2969 64.8854 9.79167 64.75 9.26562L66.0938 7.95312H66.3516V14.75C66.3516 15.4219 66.3802 15.9661 66.4375 16.3828C66.4948 16.7943 66.6016 17.112 66.7578 17.3359C66.9141 17.5547 67.1406 17.7057 67.4375 17.7891C67.7344 17.8724 68.1224 17.9141 68.6016 17.9141V19.8516C67.8672 19.8516 67.2682 19.6927 66.8047 19.375C66.3411 19.0573 66 18.6042 65.7812 18.0156C65.5677 17.4271 65.4609 16.7214 65.4609 15.8984ZM68.2266 18.8828C68.2266 18.5547 68.2578 18.3125 68.3203 18.1562C68.3776 17.9948 68.474 17.9141 68.6094 17.9141C69.1406 17.9141 69.5781 17.8672 69.9219 17.7734C70.2708 17.6797 70.5573 17.5234 70.7812 17.3047C71.0052 17.0859 71.1927 16.7969 71.3438 16.4375C71.5 16.0729 71.651 15.6198 71.7969 15.0781L72.5 15.2109C72.375 15.6536 72.2812 16.0234 72.2188 16.3203C72.1562 16.612 72.125 16.8724 72.125 17.1016C72.125 17.4505 72.2604 17.6875 72.5312 17.8125C72.8021 17.9323 73.1927 17.9922 73.7031 17.9922C74.026 17.9922 74.2891 17.9583 74.4922 17.8906C74.7005 17.8177 74.8698 17.6901 75 17.5078C75.1354 17.3255 75.2526 17.0677 75.3516 16.7344C75.4505 16.401 75.5547 15.9688 75.6641 15.4375L76.3594 15.4922C76.3021 15.8099 76.2552 16.099 76.2188 16.3594C76.1823 16.6146 76.1641 16.8359 76.1641 17.0234C76.1641 17.3932 76.2969 17.6484 76.5625 17.7891C76.8281 17.9245 77.25 17.9922 77.8281 17.9922C78.349 17.9922 78.7474 17.9557 79.0234 17.8828C79.2995 17.8099 79.4375 17.6667 79.4375 17.4531C79.4375 17.1042 79.3542 16.7292 79.1875 16.3281C79.0208 15.9271 78.7995 15.526 78.5234 15.125L79.5859 13.7734L79.7969 13.7812C79.9844 14.2917 80.1172 14.776 80.1953 15.2344C80.2786 15.6927 80.3203 16.1745 80.3203 16.6797C80.3203 17.3516 80.2057 17.9323 79.9766 18.4219C79.7526 18.9115 79.4453 19.2891 79.0547 19.5547C78.6693 19.8151 78.2318 19.9453 77.7422 19.9453C77.4089 19.9453 77.1042 19.8802 76.8281 19.75C76.5573 19.6146 76.3151 19.4323 76.1016 19.2031C75.888 18.974 75.7031 18.7109 75.5469 18.4141C75.401 18.7057 75.2344 18.9661 75.0469 19.1953C74.8594 19.4245 74.6484 19.6042 74.4141 19.7344C74.1797 19.8646 73.9193 19.9297 73.6328 19.9297C73.2734 19.9297 72.9557 19.8594 72.6797 19.7188C72.4089 19.5781 72.1693 19.3828 71.9609 19.1328C71.7578 18.8776 71.5729 18.5833 71.4062 18.25C71.2031 18.6042 70.9818 18.901 70.7422 19.1406C70.5026 19.375 70.2135 19.5521 69.875 19.6719C69.5365 19.7917 69.1146 19.8516 68.6094 19.8516C68.5208 19.8516 68.4505 19.8151 68.3984 19.7422C68.3411 19.6641 68.2995 19.5521 68.2734 19.4062C68.2422 19.2604 68.2266 19.0859 68.2266 18.8828ZM87.7109 19.2344C87.7109 20.526 87.4271 21.6172 86.8594 22.5078C86.2969 23.4036 85.4141 24.0469 84.2109 24.4375C83.9714 24.1771 83.6328 23.9818 83.1953 23.8516C82.763 23.7214 82.1953 23.6328 81.4922 23.5859L81.5078 23.0547C82.3411 22.862 83.0677 22.6667 83.6875 22.4688C84.3073 22.2708 84.8333 22.0625 85.2656 21.8438C85.7031 21.625 86.0547 21.3906 86.3203 21.1406C86.5911 20.8958 86.7891 20.6276 86.9141 20.3359C87.0391 20.0495 87.1016 19.7318 87.1016 19.3828C87.1016 18.5755 87.0026 17.8594 86.8047 17.2344C86.6068 16.6094 86.3229 16.1172 85.9531 15.7578C85.5833 15.3984 85.1432 15.2188 84.6328 15.2188C84.1172 15.2188 83.7057 15.3854 83.3984 15.7188C83.0964 16.0469 82.9453 16.4792 82.9453 17.0156C82.9453 17.2969 83.0052 17.513 83.125 17.6641C83.25 17.8151 83.4479 17.9219 83.7188 17.9844C83.9896 18.0417 84.3438 18.0703 84.7812 18.0703C85.2448 18.0703 85.6797 18.0286 86.0859 17.9453C86.4922 17.8568 86.8594 17.7266 87.1875 17.5547L87.3203 19.4844C86.9401 19.651 86.5312 19.7812 86.0938 19.875C85.6562 19.9635 85.2214 20.0078 84.7891 20.0078C83.9714 20.0078 83.3568 19.8307 82.9453 19.4766C82.5339 19.1172 82.3281 18.5547 82.3281 17.7891C82.3281 17.1901 82.401 16.625 82.5469 16.0938C82.6979 15.5625 82.8958 15.0938 83.1406 14.6875C83.3906 14.2812 83.6667 13.9635 83.9688 13.7344C84.276 13.5 84.5911 13.3828 84.9141 13.3828C85.263 13.3828 85.6042 13.5339 85.9375 13.8359C86.2708 14.1328 86.5703 14.5495 86.8359 15.0859C87.1068 15.6172 87.3203 16.237 87.4766 16.9453C87.6328 17.6536 87.7109 18.4167 87.7109 19.2344ZM97.4062 16.9688C97.4062 17.026 97.3516 17.1198 97.2422 17.25C97.138 17.3802 97.0052 17.5182 96.8438 17.6641C96.6875 17.8099 96.5234 17.9453 96.3516 18.0703C96.2057 17.8776 96.0391 17.6953 95.8516 17.5234C95.6693 17.3464 95.4714 17.1849 95.2578 17.0391L96.2891 15.8828C96.4661 16.0026 96.638 16.138 96.8047 16.2891C96.9766 16.4349 97.1198 16.5703 97.2344 16.6953C97.349 16.8203 97.4062 16.9115 97.4062 16.9688ZM100.492 16.6094L100.258 14.1641H100.438L101.102 15.8359C101.315 16.3516 101.526 16.763 101.734 17.0703C101.948 17.3724 102.203 17.5885 102.5 17.7188C102.797 17.849 103.172 17.9141 103.625 17.9141V19.8516C103.266 19.8516 102.932 19.776 102.625 19.625C102.318 19.4688 102.034 19.2474 101.773 18.9609C101.518 18.6745 101.284 18.3333 101.07 17.9375C100.862 17.5365 100.669 17.0938 100.492 16.6094ZM91.7891 19.4688C91.7891 18.9271 91.849 18.3177 91.9688 17.6406C92.0938 16.9635 92.2734 16.2422 92.5078 15.4766L93.1406 15.6328C93.0156 16.1745 92.9115 16.6589 92.8281 17.0859C92.7448 17.513 92.6823 17.8958 92.6406 18.2344C92.599 18.5729 92.5781 18.8802 92.5781 19.1562C92.5781 19.7552 92.7083 20.2396 92.9688 20.6094C93.2344 20.9792 93.6562 21.2474 94.2344 21.4141C94.8177 21.5859 95.5859 21.6719 96.5391 21.6719C97.4141 21.6719 98.1484 21.5781 98.7422 21.3906C99.3359 21.2083 99.7812 20.9453 100.078 20.6016C100.38 20.263 100.531 19.8568 100.531 19.3828C100.531 19.0964 100.487 18.7786 100.398 18.4297C100.315 18.0755 100.177 17.6667 99.9844 17.2031C99.7917 16.7344 99.5312 16.1901 99.2031 15.5703L100.25 14.1641H100.438C100.661 14.7526 100.841 15.2917 100.977 15.7812C101.112 16.2708 101.211 16.737 101.273 17.1797C101.341 17.6224 101.375 18.0677 101.375 18.5156C101.375 20.1979 100.935 21.4792 100.055 22.3594C99.1797 23.2448 97.9635 23.6875 96.4062 23.6875C94.9167 23.6875 93.7734 23.3359 92.9766 22.6328C92.1849 21.9297 91.7891 20.875 91.7891 19.4688ZM104.031 22.8281C104.031 22.8854 103.977 22.9792 103.867 23.1094C103.763 23.2396 103.633 23.3776 103.477 23.5234C103.315 23.6693 103.148 23.8047 102.977 23.9297C102.831 23.737 102.667 23.5521 102.484 23.375C102.297 23.2031 102.096 23.0443 101.883 22.8984L102.914 21.7422C103.091 21.862 103.266 21.9948 103.438 22.1406C103.604 22.2917 103.745 22.4297 103.859 22.5547C103.974 22.6797 104.031 22.7708 104.031 22.8281ZM106.492 22.8281C106.492 22.8854 106.438 22.9792 106.328 23.1094C106.224 23.2396 106.091 23.3776 105.93 23.5234C105.773 23.6693 105.609 23.8047 105.438 23.9297C105.292 23.737 105.125 23.5521 104.938 23.375C104.755 23.2031 104.557 23.0443 104.344 22.8984L105.375 21.7422C105.552 21.862 105.724 21.9948 105.891 22.1406C106.062 22.2917 106.206 22.4297 106.32 22.5547C106.435 22.6797 106.492 22.7708 106.492 22.8281ZM103.242 18.8828C103.242 18.6693 103.258 18.4922 103.289 18.3516C103.315 18.2057 103.357 18.0964 103.414 18.0234C103.471 17.9505 103.542 17.9141 103.625 17.9141C104.651 17.9141 105.388 17.8542 105.836 17.7344C106.289 17.6146 106.516 17.3776 106.516 17.0234C106.516 16.6224 106.438 16.2214 106.281 15.8203C106.13 15.4141 105.896 14.9479 105.578 14.4219L106.617 12.9844H106.828C107.026 13.401 107.172 13.8568 107.266 14.3516C107.365 14.8464 107.414 15.3906 107.414 15.9844C107.414 16.7865 107.26 17.4766 106.953 18.0547C106.646 18.6328 106.208 19.0781 105.641 19.3906C105.073 19.6979 104.401 19.8516 103.625 19.8516C103.536 19.8516 103.466 19.8125 103.414 19.7344C103.357 19.6562 103.315 19.5469 103.289 19.4062C103.258 19.2604 103.242 19.0859 103.242 18.8828ZM113.734 14.7188C113.734 14.9167 113.69 15.1068 113.602 15.2891C113.513 15.4714 113.378 15.625 113.195 15.75C113.117 15.3698 112.977 14.9635 112.773 14.5312C112.57 14.0938 112.32 13.6536 112.023 13.2109C111.727 12.763 111.393 12.3333 111.023 11.9219C110.654 11.5052 110.266 11.1276 109.859 10.7891L109.766 10.4609L109.984 8.19531C110.516 8.70573 111.008 9.26042 111.461 9.85938C111.914 10.4583 112.31 11.0599 112.648 11.6641C112.992 12.263 113.258 12.8281 113.445 13.3594C113.638 13.8906 113.734 14.3438 113.734 14.7188ZM115.531 9.34375L116.367 7.95312H116.547L117.906 10.8203L117.312 11.9297L115.531 9.34375ZM109.375 10.0234L109.984 8.19531L111.57 11.7422L110.188 12.375L109.375 10.0234ZM116.406 15.6328V14.7266L117.086 13.0781V14.75C117.086 15.4167 117.115 15.9583 117.172 16.375C117.229 16.7917 117.336 17.112 117.492 17.3359C117.648 17.5547 117.875 17.7057 118.172 17.7891C118.474 17.8724 118.867 17.9141 119.352 17.9141V19.8516C118.409 19.8516 117.682 19.4974 117.172 18.7891C116.661 18.0807 116.406 17.0286 116.406 15.6328ZM111.227 20.0234C110.685 20.0234 110.25 19.9141 109.922 19.6953C109.594 19.4766 109.385 19.1641 109.297 18.7578C110.542 18.5547 111.604 18.3359 112.484 18.1016C113.365 17.862 114.078 17.5885 114.625 17.2812C115.177 16.974 115.581 16.6172 115.836 16.2109C116.091 15.8047 116.219 15.3307 116.219 14.7891C116.219 14.4661 116.206 14.1172 116.18 13.7422C116.159 13.3672 116.125 12.9792 116.078 12.5781C116.036 12.1771 115.987 11.7812 115.93 11.3906C115.872 11 115.81 10.6302 115.742 10.2812C115.674 9.92708 115.604 9.61458 115.531 9.34375L116.367 7.95312H116.461C116.549 8.31771 116.63 8.72396 116.703 9.17188C116.776 9.61458 116.841 10.0703 116.898 10.5391C116.961 11.0026 117.008 11.4531 117.039 11.8906C117.07 12.3281 117.086 12.724 117.086 13.0781C117.086 14.1198 116.951 15.0677 116.68 15.9219C116.409 16.776 116.018 17.5104 115.508 18.125C115.003 18.7344 114.388 19.2031 113.664 19.5312C112.945 19.8594 112.133 20.0234 111.227 20.0234ZM122.32 10.2969C122.32 10.3542 122.266 10.4479 122.156 10.5781C122.052 10.7083 121.919 10.8464 121.758 10.9922C121.602 11.138 121.438 11.2734 121.266 11.3984C121.12 11.2057 120.953 11.0234 120.766 10.8516C120.583 10.6745 120.385 10.513 120.172 10.3672L121.203 9.21094C121.38 9.33073 121.552 9.46615 121.719 9.61719C121.891 9.76302 122.034 9.89844 122.148 10.0234C122.263 10.1484 122.32 10.2396 122.32 10.2969ZM118.977 18.8828C118.977 18.6693 118.992 18.4922 119.023 18.3516C119.049 18.2057 119.091 18.0964 119.148 18.0234C119.206 17.9505 119.276 17.9141 119.359 17.9141C120.385 17.9141 121.122 17.8542 121.57 17.7344C122.023 17.6146 122.25 17.3776 122.25 17.0234C122.25 16.6224 122.172 16.2214 122.016 15.8203C121.865 15.4141 121.63 14.9479 121.312 14.4219L122.352 12.9844H122.562C122.76 13.401 122.906 13.8568 123 14.3516C123.099 14.8464 123.148 15.3906 123.148 15.9844C123.148 16.7865 122.995 17.4766 122.688 18.0547C122.38 18.6328 121.943 19.0781 121.375 19.3906C120.807 19.6979 120.135 19.8516 119.359 19.8516C119.271 19.8516 119.201 19.8125 119.148 19.7344C119.091 19.6562 119.049 19.5469 119.023 19.4062C118.992 19.2604 118.977 19.0859 118.977 18.8828ZM125.562 15.9922C125.562 15.5859 125.544 15.1432 125.508 14.6641C125.471 14.1849 125.417 13.6693 125.344 13.1172C125.276 12.5599 125.188 11.9661 125.078 11.3359C124.974 10.7057 124.852 10.0391 124.711 9.33594L125.68 7.88281H125.859C126.047 8.88802 126.206 9.8151 126.336 10.6641C126.466 11.513 126.565 12.2891 126.633 12.9922C126.701 13.6901 126.734 14.3229 126.734 14.8906C126.734 15.526 126.701 16.1068 126.633 16.6328C126.57 17.1589 126.477 17.6328 126.352 18.0547C126.227 18.4714 126.07 18.8385 125.883 19.1562C125.701 19.4688 125.49 19.737 125.25 19.9609L125.031 19.8281C125.224 19.3073 125.359 18.7188 125.438 18.0625C125.521 17.401 125.562 16.7109 125.562 15.9922ZM124.711 9.33594L125.68 7.88281H125.875L127.141 10.8203L126.586 11.9297L124.711 9.33594ZM124.922 5.24219C125.073 5.24219 125.232 5.26823 125.398 5.32031C125.57 5.36719 125.74 5.42188 125.906 5.48438C126.083 5.55208 126.255 5.61198 126.422 5.66406C126.594 5.71094 126.758 5.73438 126.914 5.73438C127.19 5.73438 127.427 5.66667 127.625 5.53125C127.828 5.39062 127.995 5.20833 128.125 4.98438L128.398 5.17188C128.159 5.71354 127.885 6.1224 127.578 6.39844C127.271 6.66927 126.938 6.80469 126.578 6.80469C126.432 6.80469 126.273 6.77865 126.102 6.72656C125.93 6.67448 125.755 6.61458 125.578 6.54688C125.396 6.47396 125.216 6.41406 125.039 6.36719C124.862 6.32031 124.698 6.29688 124.547 6.29688C124.286 6.29688 124.062 6.36458 123.875 6.5C123.682 6.63021 123.516 6.80208 123.375 7.01562L123.141 6.85156C123.38 6.32552 123.651 5.92708 123.953 5.65625C124.255 5.38021 124.578 5.24219 124.922 5.24219ZM130.938 17.7422C130.938 17.2786 131.021 16.7969 131.188 16.2969C131.359 15.7969 131.599 15.2943 131.906 14.7891C132.214 14.2839 132.578 13.7995 133 13.3359L133.43 13.7344C133.117 14.0469 132.833 14.3828 132.578 14.7422C132.323 15.0964 132.12 15.4531 131.969 15.8125C131.818 16.1719 131.742 16.5182 131.742 16.8516C131.742 17.2526 131.893 17.5573 132.195 17.7656C132.497 17.9688 132.956 18.0703 133.57 18.0703C134.19 18.0703 134.661 17.9661 134.984 17.7578C135.312 17.5495 135.477 17.2422 135.477 16.8359C135.477 16.4609 135.333 16.0703 135.047 15.6641C134.766 15.2526 134.365 14.8385 133.844 14.4219C133.328 14.0052 132.714 13.6016 132 13.2109L132.805 11.4297H133.047C133.562 11.7891 134.021 12.1693 134.422 12.5703C134.823 12.9714 135.161 13.388 135.438 13.8203C135.714 14.2526 135.924 14.7005 136.07 15.1641C136.216 15.6276 136.289 16.1016 136.289 16.5859C136.289 17.7734 136.044 18.6406 135.555 19.1875C135.065 19.7344 134.352 20.0078 133.414 20.0078C132.945 20.0078 132.523 19.9193 132.148 19.7422C131.773 19.5599 131.477 19.2995 131.258 18.9609C131.044 18.6224 130.938 18.2161 130.938 17.7422ZM138.461 15.8984C138.461 15.1589 138.448 14.4948 138.422 13.9062C138.396 13.3125 138.357 12.763 138.305 12.2578C138.253 11.7526 138.18 11.2604 138.086 10.7812C137.997 10.2969 137.885 9.79167 137.75 9.26562L139.094 7.95312H139.352V14.75C139.352 15.4219 139.38 15.9661 139.438 16.3828C139.495 16.7943 139.602 17.112 139.758 17.3359C139.914 17.5547 140.141 17.7057 140.438 17.7891C140.734 17.8724 141.122 17.9141 141.602 17.9141V19.8516C140.867 19.8516 140.268 19.6927 139.805 19.375C139.341 19.0573 139 18.6042 138.781 18.0156C138.568 17.4271 138.461 16.7214 138.461 15.8984ZM148.344 6.30469L148.445 6.41406L148.203 7.03125L142.711 8.32812L142.609 8.21094L142.852 7.59375L148.344 6.30469ZM143.406 11.6719C144.005 12.1094 144.552 12.5339 145.047 12.9453C145.542 13.3516 145.99 13.7682 146.391 14.1953C146.792 14.6172 147.154 15.0833 147.477 15.5938C147.779 16.0677 148.073 16.4557 148.359 16.7578C148.651 17.0599 148.953 17.2969 149.266 17.4688C149.583 17.6354 149.932 17.7526 150.312 17.8203C150.698 17.8828 151.133 17.9141 151.617 17.9141V19.8516C150.867 19.8516 150.224 19.7422 149.688 19.5234C149.151 19.3047 148.667 18.9661 148.234 18.5078C147.807 18.0443 147.372 17.4453 146.93 16.7109C146.669 16.2682 146.398 15.8542 146.117 15.4688C145.836 15.0781 145.539 14.7083 145.227 14.3594C144.919 14.0052 144.594 13.6641 144.25 13.3359C143.906 13.0026 143.539 12.6745 143.148 12.3516L143.406 11.6719ZM141.609 19.8516C141.521 19.8516 141.451 19.8125 141.398 19.7344C141.341 19.6562 141.299 19.5443 141.273 19.3984C141.242 19.2526 141.227 19.0807 141.227 18.8828C141.227 18.6693 141.242 18.4922 141.273 18.3516C141.299 18.2057 141.341 18.0964 141.398 18.0234C141.456 17.9505 141.526 17.9141 141.609 17.9141C142.708 17.9141 143.622 17.8854 144.352 17.8281C145.086 17.7708 145.635 17.6641 146 17.5078C146.37 17.3464 146.555 17.1172 146.555 16.8203C146.555 16.6536 146.487 16.4609 146.352 16.2422C146.221 16.0234 146.026 15.7786 145.766 15.5078C145.505 15.237 145.185 14.9401 144.805 14.6172C144.43 14.2891 143.997 13.9349 143.508 13.5547C143.018 13.1745 142.479 12.7682 141.891 12.3359C142.031 11.7995 142.201 11.349 142.398 10.9844C142.602 10.6198 142.846 10.3307 143.133 10.1172C143.424 9.89844 143.768 9.74479 144.164 9.65625L148.93 8.53906L149.125 8.75781L148.633 10.3281L145.703 10.8281C145.25 10.901 144.872 10.9766 144.57 11.0547C144.268 11.1328 144.018 11.2161 143.82 11.3047C143.628 11.388 143.456 11.487 143.305 11.6016C144.081 12.1745 144.721 12.6771 145.227 13.1094C145.737 13.5417 146.138 13.9323 146.43 14.2812C146.721 14.6302 146.927 14.9609 147.047 15.2734C147.167 15.5807 147.227 15.901 147.227 16.2344C147.227 17.5052 146.768 18.4271 145.852 19C144.94 19.5677 143.526 19.8516 141.609 19.8516ZM141.891 12.3359L142.789 10.9531L143.875 13.2344L142.742 14.0703L141.891 12.3359ZM147.461 10.0078L149.125 8.75781L148.523 10.7734L147.461 10.0078ZM158.375 12.2891C158.375 12.3464 158.32 12.4401 158.211 12.5703C158.107 12.7005 157.974 12.8385 157.812 12.9844C157.656 13.1302 157.492 13.2656 157.32 13.3906C157.174 13.1979 157.008 13.0156 156.82 12.8438C156.638 12.6667 156.44 12.5052 156.227 12.3594L157.258 11.2031C157.435 11.3229 157.607 11.4583 157.773 11.6094C157.945 11.7552 158.089 11.8906 158.203 12.0156C158.318 12.1406 158.375 12.2318 158.375 12.2891ZM160.836 12.2891C160.836 12.3464 160.781 12.4401 160.672 12.5703C160.568 12.7005 160.435 12.8385 160.273 12.9844C160.117 13.1302 159.953 13.2656 159.781 13.3906C159.635 13.1979 159.469 13.0156 159.281 12.8438C159.099 12.6667 158.901 12.5052 158.688 12.3594L159.719 11.2031C159.896 11.3229 160.068 11.4583 160.234 11.6094C160.406 11.7552 160.549 11.8906 160.664 12.0156C160.779 12.1406 160.836 12.2318 160.836 12.2891ZM159.477 9.95312C159.477 10.0104 159.424 10.1016 159.32 10.2266C159.221 10.3464 159.096 10.4766 158.945 10.6172C158.794 10.7578 158.638 10.8854 158.477 11C158.341 10.8177 158.185 10.6458 158.008 10.4844C157.831 10.3177 157.641 10.1641 157.438 10.0234L158.414 8.92188C158.664 9.09375 158.904 9.28906 159.133 9.50781C159.362 9.72135 159.477 9.86979 159.477 9.95312ZM151.242 18.8828C151.242 18.5547 151.273 18.3125 151.336 18.1562C151.393 17.9948 151.49 17.9141 151.625 17.9141C152.156 17.9141 152.594 17.8672 152.938 17.7734C153.286 17.6797 153.573 17.5234 153.797 17.3047C154.021 17.0859 154.208 16.7969 154.359 16.4375C154.516 16.0729 154.667 15.6198 154.812 15.0781L155.516 15.2109C155.391 15.6536 155.297 16.0234 155.234 16.3203C155.172 16.612 155.141 16.8724 155.141 17.1016C155.141 17.4505 155.276 17.6875 155.547 17.8125C155.818 17.9323 156.208 17.9922 156.719 17.9922C157.042 17.9922 157.305 17.9583 157.508 17.8906C157.716 17.8177 157.885 17.6901 158.016 17.5078C158.151 17.3255 158.268 17.0677 158.367 16.7344C158.466 16.401 158.57 15.9688 158.68 15.4375L159.375 15.4922C159.318 15.8099 159.271 16.099 159.234 16.3594C159.198 16.6146 159.18 16.8359 159.18 17.0234C159.18 17.3932 159.312 17.6484 159.578 17.7891C159.844 17.9245 160.266 17.9922 160.844 17.9922C161.365 17.9922 161.763 17.9557 162.039 17.8828C162.315 17.8099 162.453 17.6667 162.453 17.4531C162.453 17.1042 162.37 16.7292 162.203 16.3281C162.036 15.9271 161.815 15.526 161.539 15.125L162.602 13.7734L162.812 13.7812C163 14.2917 163.133 14.776 163.211 15.2344C163.294 15.6927 163.336 16.1745 163.336 16.6797C163.336 17.3516 163.221 17.9323 162.992 18.4219C162.768 18.9115 162.461 19.2891 162.07 19.5547C161.685 19.8151 161.247 19.9453 160.758 19.9453C160.424 19.9453 160.12 19.8802 159.844 19.75C159.573 19.6146 159.331 19.4323 159.117 19.2031C158.904 18.974 158.719 18.7109 158.562 18.4141C158.417 18.7057 158.25 18.9661 158.062 19.1953C157.875 19.4245 157.664 19.6042 157.43 19.7344C157.195 19.8646 156.935 19.9297 156.648 19.9297C156.289 19.9297 155.971 19.8594 155.695 19.7188C155.424 19.5781 155.185 19.3828 154.977 19.1328C154.773 18.8776 154.589 18.5833 154.422 18.25C154.219 18.6042 153.997 18.901 153.758 19.1406C153.518 19.375 153.229 19.5521 152.891 19.6719C152.552 19.7917 152.13 19.8516 151.625 19.8516C151.536 19.8516 151.466 19.8151 151.414 19.7422C151.357 19.6641 151.315 19.5521 151.289 19.4062C151.258 19.2604 151.242 19.0859 151.242 18.8828ZM170.727 19.2344C170.727 20.526 170.443 21.6172 169.875 22.5078C169.312 23.4036 168.43 24.0469 167.227 24.4375C166.987 24.1771 166.648 23.9818 166.211 23.8516C165.779 23.7214 165.211 23.6328 164.508 23.5859L164.523 23.0547C165.357 22.862 166.083 22.6667 166.703 22.4688C167.323 22.2708 167.849 22.0625 168.281 21.8438C168.719 21.625 169.07 21.3906 169.336 21.1406C169.607 20.8958 169.805 20.6276 169.93 20.3359C170.055 20.0495 170.117 19.7318 170.117 19.3828C170.117 18.5755 170.018 17.8594 169.82 17.2344C169.622 16.6094 169.339 16.1172 168.969 15.7578C168.599 15.3984 168.159 15.2188 167.648 15.2188C167.133 15.2188 166.721 15.3854 166.414 15.7188C166.112 16.0469 165.961 16.4792 165.961 17.0156C165.961 17.2969 166.021 17.513 166.141 17.6641C166.266 17.8151 166.464 17.9219 166.734 17.9844C167.005 18.0417 167.359 18.0703 167.797 18.0703C168.26 18.0703 168.695 18.0286 169.102 17.9453C169.508 17.8568 169.875 17.7266 170.203 17.5547L170.336 19.4844C169.956 19.651 169.547 19.7812 169.109 19.875C168.672 19.9635 168.237 20.0078 167.805 20.0078C166.987 20.0078 166.372 19.8307 165.961 19.4766C165.549 19.1172 165.344 18.5547 165.344 17.7891C165.344 17.1901 165.417 16.625 165.562 16.0938C165.714 15.5625 165.911 15.0938 166.156 14.6875C166.406 14.2812 166.682 13.9635 166.984 13.7344C167.292 13.5 167.607 13.3828 167.93 13.3828C168.279 13.3828 168.62 13.5339 168.953 13.8359C169.286 14.1328 169.586 14.5495 169.852 15.0859C170.122 15.6172 170.336 16.237 170.492 16.9453C170.648 17.6536 170.727 18.4167 170.727 19.2344ZM176.086 17.2734L175.891 14.7812H176.062L176.75 16.4531C176.906 16.8385 177.12 17.138 177.391 17.3516C177.661 17.5599 178 17.7057 178.406 17.7891C178.818 17.8724 179.307 17.9141 179.875 17.9141V19.8516C179.318 19.8516 178.789 19.75 178.289 19.5469C177.789 19.3438 177.346 19.0521 176.961 18.6719C176.581 18.2865 176.289 17.8203 176.086 17.2734ZM177.148 19.2812C177.148 20.1615 177.023 20.9479 176.773 21.6406C176.529 22.3333 176.172 22.9141 175.703 23.3828C175.234 23.8568 174.667 24.2083 174 24.4375C173.76 24.1771 173.422 23.9818 172.984 23.8516C172.547 23.7214 171.977 23.6328 171.273 23.5859L171.289 23.0547C171.898 22.9089 172.461 22.75 172.977 22.5781C173.487 22.4115 173.945 22.2318 174.352 22.0391C174.758 21.8516 175.104 21.6484 175.391 21.4297C175.677 21.2161 175.893 20.987 176.039 20.7422C176.19 20.5026 176.266 20.25 176.266 19.9844C176.266 19.7083 176.216 19.401 176.117 19.0625C176.018 18.724 175.862 18.3229 175.648 17.8594C175.435 17.3906 175.151 16.8333 174.797 16.1875L175.883 14.7812H176.062C176.297 15.3594 176.492 15.8932 176.648 16.3828C176.81 16.8672 176.932 17.3438 177.016 17.8125C177.104 18.276 177.148 18.7656 177.148 19.2812ZM184.195 7.21875C184.195 7.27604 184.141 7.36979 184.031 7.5C183.927 7.63021 183.794 7.76823 183.633 7.91406C183.477 8.0599 183.312 8.19531 183.141 8.32031C182.995 8.1276 182.828 7.94531 182.641 7.77344C182.458 7.59635 182.26 7.4349 182.047 7.28906L183.078 6.13281C183.255 6.2526 183.427 6.38802 183.594 6.53906C183.766 6.6849 183.909 6.82031 184.023 6.94531C184.138 7.07031 184.195 7.16146 184.195 7.21875ZM179.492 18.8828C179.492 18.6641 179.508 18.4844 179.539 18.3438C179.565 18.1979 179.607 18.0911 179.664 18.0234C179.716 17.9505 179.786 17.9141 179.875 17.9141C181 17.9141 181.924 17.888 182.648 17.8359C183.378 17.7786 183.945 17.6771 184.352 17.5312C184.763 17.3802 185.052 17.1667 185.219 16.8906C185.385 16.6146 185.469 16.2552 185.469 15.8125C185.469 15.0104 185.362 14.2865 185.148 13.6406C184.94 12.9948 184.643 12.4844 184.258 12.1094C183.878 11.7292 183.424 11.5391 182.898 11.5391C182.576 11.5391 182.289 11.6224 182.039 11.7891C181.789 11.9505 181.594 12.1745 181.453 12.4609C181.312 12.7422 181.242 13.0625 181.242 13.4219C181.242 13.6927 181.307 13.901 181.438 14.0469C181.573 14.1927 181.784 14.2943 182.07 14.3516C182.357 14.4036 182.729 14.4297 183.188 14.4297C183.635 14.4297 184.06 14.3932 184.461 14.3203C184.867 14.2474 185.211 14.1458 185.492 14.0156L185.602 15.7188C185.247 15.8646 184.852 15.9792 184.414 16.0625C183.977 16.1406 183.56 16.1797 183.164 16.1797C182.279 16.1797 181.633 16.0104 181.227 15.6719C180.82 15.3333 180.617 14.8073 180.617 14.0938C180.617 13.5312 180.688 12.9974 180.828 12.4922C180.974 11.987 181.167 11.5417 181.406 11.1562C181.651 10.7656 181.924 10.4609 182.227 10.2422C182.529 10.0182 182.836 9.90625 183.148 9.90625C183.497 9.90625 183.841 10.0573 184.18 10.3594C184.523 10.6615 184.833 11.0755 185.109 11.6016C185.385 12.1276 185.604 12.7344 185.766 13.4219C185.932 14.1094 186.016 14.8359 186.016 15.6016C186.016 16.3984 185.911 17.0703 185.703 17.6172C185.5 18.1589 185.164 18.5938 184.695 18.9219C184.227 19.25 183.596 19.487 182.805 19.6328C182.018 19.7786 181.042 19.8516 179.875 19.8516C179.786 19.8516 179.716 19.8125 179.664 19.7344C179.607 19.6562 179.565 19.5469 179.539 19.4062C179.508 19.2604 179.492 19.0859 179.492 18.8828Z" fill="#202020"></path><path d="M3.46696 50.8974L4.6113 50.4226C5.24435 51.993 5.56087 53.2571 5.56087 54.2148C5.56087 54.8357 5.43101 55.3936 5.1713 55.8887C4.91565 56.3878 4.48145 56.8707 3.8687 57.3374C3.26 57.8081 2.42406 58.3072 1.36087 58.8348L0.813043 57.7209C1.73014 57.2623 2.44232 56.8504 2.94957 56.4852C3.45681 56.1241 3.81188 55.7649 4.01478 55.4078C4.21768 55.0548 4.31913 54.6571 4.31913 54.2148C4.31913 53.4194 4.03507 52.3136 3.46696 50.8974ZM11.6451 53.7583H12.2538V55H11.4929C11.286 55.8157 10.8031 56.5359 10.0442 57.1609C9.28944 57.7899 8.29727 58.3438 7.0677 58.8226L6.599 57.6783C7.49987 57.309 8.26886 56.8951 8.90596 56.4365C9.54712 55.978 9.97321 55.4991 10.1842 55H9.46596C8.70306 55 8.07814 54.8377 7.59118 54.513C7.10422 54.1884 6.86074 53.6507 6.86074 52.9C6.86074 52.5186 6.90741 52.1249 7.00074 51.7191C7.09408 51.3093 7.23611 50.9299 7.42683 50.5809C7.62161 50.2278 7.86712 49.9438 8.16335 49.7287C8.45958 49.5096 8.8106 49.4 9.2164 49.4C9.65466 49.4 10.028 49.542 10.3364 49.8261C10.6489 50.1101 10.9025 50.4754 11.0973 50.9217C11.292 51.3641 11.4341 51.8368 11.5234 52.34C11.6126 52.8432 11.6532 53.3159 11.6451 53.7583ZM10.519 53.7583C10.5312 53.1739 10.4683 52.6484 10.3303 52.1817C10.1923 51.711 10.0118 51.3377 9.78857 51.0617C9.56538 50.7858 9.33205 50.6478 9.08857 50.6478C8.88161 50.6478 8.68683 50.7391 8.50422 50.9217C8.32161 51.1003 8.1735 51.3438 8.05987 51.6522C7.94625 51.9606 7.88944 52.3096 7.88944 52.6991C7.88944 53.0603 8.00712 53.3281 8.24248 53.5026C8.47785 53.673 8.91814 53.7583 9.56335 53.7583H10.519ZM20.8974 52.6687C20.8974 52.3765 20.8487 52.0174 20.7513 51.5913C20.658 51.1652 20.5525 50.7655 20.4348 50.3922L21.5852 49.9904C21.6501 50.2096 21.7212 50.4551 21.7983 50.727C21.8754 50.9988 21.9403 51.2301 21.993 51.4209C22.127 51.8957 22.2609 52.3096 22.3948 52.6626C22.5287 53.0116 22.7032 53.2814 22.9183 53.4722C23.1374 53.6629 23.4417 53.7583 23.8313 53.7583H23.8374V55H23.8313C23.2064 55 22.7275 54.858 22.3948 54.5739C22.0661 54.2899 21.8145 53.9307 21.64 53.4965C21.5588 53.9591 21.3701 54.3304 21.0739 54.6104C20.7777 54.8904 20.38 55.0304 19.8809 55.0304C19.4264 55.0304 19.051 54.9128 18.7548 54.6774C18.4585 54.438 18.2719 54.1093 18.1948 53.6913C18.0852 54.0849 17.8904 54.4075 17.6104 54.6591C17.3304 54.9067 16.953 55.0304 16.4783 55.0304C15.9872 55.0304 15.6078 54.8965 15.34 54.6287C15.0762 54.3568 14.9078 54.0058 14.8348 53.5757C14.6278 54.0545 14.3154 54.4116 13.8974 54.647C13.4835 54.8823 12.9356 55 12.2539 55C12.1403 55 12.0693 54.9391 12.0409 54.8174C12.0125 54.6957 11.9983 54.5496 11.9983 54.3791C11.9983 54.2087 12.0125 54.0626 12.0409 53.9409C12.0693 53.8191 12.1403 53.7583 12.2539 53.7583C12.7246 53.7583 13.102 53.6933 13.3861 53.5635C13.6701 53.4296 13.8852 53.2023 14.0313 52.8817C14.1814 52.5571 14.289 52.1087 14.3539 51.5365L14.4391 50.7513L15.4922 50.8609C15.4556 51.149 15.4272 51.4168 15.4069 51.6643C15.3867 51.9078 15.3765 52.131 15.3765 52.3339C15.3765 52.8574 15.4577 53.2307 15.62 53.4539C15.7864 53.6771 16.0542 53.7887 16.4235 53.7887C16.8009 53.7887 17.0849 53.6365 17.2756 53.3322C17.4704 53.0278 17.6064 52.4942 17.6835 51.7313L17.7687 50.9217L18.8217 51.0313C18.7933 51.2626 18.769 51.4858 18.7487 51.7009C18.7325 51.9159 18.7243 52.1128 18.7243 52.2913C18.7243 52.8107 18.8116 53.1901 18.9861 53.4296C19.1646 53.669 19.4446 53.7887 19.8261 53.7887C20.1629 53.7887 20.4246 53.6974 20.6113 53.5148C20.802 53.3322 20.8974 53.0501 20.8974 52.6687ZM18.3774 48.1522L19.3148 47.2209L20.2461 48.1522L19.3148 49.0896L18.3774 48.1522ZM16.0765 48.1522L17.0139 47.2209L17.9452 48.1522L17.0139 49.0896L16.0765 48.1522ZM17.2269 46.1252L18.1643 45.1939L19.0956 46.1252L18.1643 47.0626L17.2269 46.1252ZM25.4288 47.9391C26.3662 48.7264 27.0722 49.4548 27.547 50.1243C28.0259 50.7899 28.2653 51.4655 28.2653 52.1513C28.2653 52.7357 28.0827 53.2409 27.7175 53.667C27.3522 54.093 26.8369 54.4217 26.1714 54.653C25.5059 54.8843 24.7267 55 23.834 55C23.7204 55 23.6493 54.9391 23.6209 54.8174C23.5925 54.6957 23.5783 54.5496 23.5783 54.3791C23.5783 54.2087 23.5925 54.0626 23.6209 53.9409C23.6493 53.8191 23.7204 53.7583 23.834 53.7583C24.8688 53.7583 25.658 53.6183 26.2018 53.3383C26.7496 53.0542 27.0235 52.6809 27.0235 52.2183C27.0235 51.711 26.7578 51.149 26.2262 50.5322C25.6986 49.9113 24.9093 49.1951 23.8583 48.3835L23.9435 47.2878C24.536 46.9794 25.1711 46.6913 25.8488 46.4235C26.5305 46.1516 27.2163 45.9122 27.9062 45.7052C28.596 45.4942 29.2554 45.3278 29.8844 45.2061L30.1522 46.4174C29.6653 46.5107 29.1479 46.6345 28.6001 46.7887C28.0563 46.9429 27.5105 47.1194 26.9627 47.3183C26.4189 47.513 25.9076 47.72 25.4288 47.9391ZM41.3924 53.7583V55H40.2541C40.9643 55.2597 41.3193 55.7041 41.3193 56.333C41.3193 56.8525 41.1448 57.3049 40.7959 57.6904C40.4469 58.0759 39.966 58.3742 39.3533 58.5852C38.7446 58.8003 38.0425 58.9078 37.2472 58.9078C35.8593 58.9078 34.788 58.573 34.0333 57.9035C33.2785 57.238 32.9011 56.2925 32.9011 55.067C32.9011 54.718 32.9295 54.3183 32.9863 53.8678C33.0431 53.4133 33.1222 52.9487 33.2237 52.4739C33.3251 51.9991 33.4408 51.5588 33.5706 51.153L34.7637 51.5183C34.6419 51.9078 34.5344 52.3197 34.4411 52.7539C34.3477 53.1881 34.2747 53.6101 34.2219 54.02C34.1692 54.4299 34.1428 54.791 34.1428 55.1035C34.1428 55.9841 34.3822 56.6313 34.8611 57.0452C35.3399 57.4591 36.113 57.6661 37.1802 57.6661C38.1095 57.6661 38.8501 57.5281 39.4019 57.2522C39.9579 56.9762 40.2359 56.6333 40.2359 56.2235C40.2359 56.0125 40.1446 55.8299 39.9619 55.6757C39.7793 55.5255 39.4689 55.3957 39.0306 55.2861C38.5924 55.1765 37.9918 55.0812 37.2289 55L37.3324 53.7583H41.3924ZM43.44 53.8922C43.2087 54.1965 42.9266 54.4583 42.5939 54.6774C42.2652 54.8925 41.8635 55 41.3887 55C41.275 55 41.204 54.9391 41.1756 54.8174C41.1472 54.6957 41.133 54.5496 41.133 54.3791C41.133 54.2087 41.1472 54.0626 41.1756 53.9409C41.204 53.8191 41.275 53.7583 41.3887 53.7583C41.831 53.7583 42.184 53.5777 42.4478 53.2165C42.7116 52.8554 42.9591 52.413 43.1904 51.8896C43.2878 51.6623 43.4035 51.4188 43.5374 51.1591C43.6753 50.8994 43.8397 50.6539 44.0304 50.4226C44.2252 50.1872 44.4585 49.9965 44.7304 49.8504C45.0064 49.7003 45.331 49.6252 45.7043 49.6252C46.2035 49.6252 46.6295 49.7774 46.9826 50.0817C47.3397 50.382 47.6116 50.7635 47.7982 51.2261C47.989 51.6846 48.0843 52.1513 48.0843 52.6261C48.0843 53.3809 47.8733 53.9754 47.4513 54.4096C47.0293 54.8438 46.5017 55.0609 45.8687 55.0609C45.402 55.0609 44.9556 54.9533 44.5295 54.7383C44.1075 54.5232 43.7443 54.2412 43.44 53.8922ZM44.1278 52.8148C44.3469 53.1272 44.6087 53.3728 44.913 53.5513C45.2174 53.7299 45.5359 53.8191 45.8687 53.8191C46.173 53.8191 46.4368 53.7238 46.66 53.533C46.8832 53.3423 46.9948 53.04 46.9948 52.6261C46.9948 52.2852 46.9298 51.9829 46.8 51.7191C46.6742 51.4513 46.5139 51.2423 46.3191 51.0922C46.1284 50.942 45.9336 50.867 45.7348 50.867C45.4182 50.867 45.1545 51.007 44.9435 51.287C44.7324 51.5629 44.5316 51.9159 44.3408 52.3461C44.3043 52.4313 44.2678 52.5125 44.2313 52.5896C44.1948 52.6667 44.1603 52.7417 44.1278 52.8148ZM52.2351 54.4522C52.2432 54.6835 52.231 54.9006 52.1985 55.1035C52.1011 55.5742 51.9084 56.0023 51.6203 56.3878C51.3362 56.7774 50.9101 57.1649 50.342 57.5504C49.7739 57.94 49.0191 58.3681 48.0777 58.8348L47.5298 57.7209C48.2359 57.3678 48.8203 57.0472 49.2829 56.7591C49.7455 56.4751 50.1087 56.2012 50.3724 55.9374C50.6403 55.6777 50.829 55.4078 50.9385 55.1278C51.0522 54.8519 51.109 54.5455 51.109 54.2087C51.109 53.8232 51.0542 53.46 50.9446 53.1191L50.1838 50.8548L51.3524 50.453L52.1498 52.8148C52.2594 53.1394 52.4562 53.3788 52.7403 53.533C53.0284 53.6832 53.424 53.7583 53.9272 53.7583H53.9333V55H53.9272C53.558 55 53.2211 54.9533 52.9168 54.86C52.6165 54.7626 52.3893 54.6267 52.2351 54.4522ZM62.449 52.0661C62.1284 52.1067 61.7571 52.2183 61.3351 52.4009C60.9131 52.5835 60.4058 52.8513 59.8134 53.2043C59.0829 53.6426 58.4032 53.9936 57.7742 54.2574C57.1493 54.5171 56.5284 54.7058 55.9116 54.8235C55.2948 54.9412 54.6374 55 53.9395 55C53.8258 55 53.7548 54.9391 53.7264 54.8174C53.698 54.6957 53.6838 54.5496 53.6838 54.3791C53.6838 54.2087 53.698 54.0626 53.7264 53.9409C53.7548 53.8191 53.8258 53.7583 53.9395 53.7583C54.6415 53.7583 55.2563 53.7075 55.7838 53.6061C56.3154 53.5006 56.8226 53.3464 57.3055 53.1435C57.7884 52.9365 58.3119 52.6768 58.876 52.3643C59.2006 52.1858 59.5192 52.0214 59.8316 51.8713C60.1481 51.7171 60.4748 51.5974 60.8116 51.5122C60.3977 51.4351 60.0122 51.3194 59.6551 51.1652C59.298 51.007 58.9368 50.8304 58.5716 50.6357C58.1455 50.4125 57.7986 50.2501 57.5308 50.1487C57.2629 50.0472 57.0296 49.9965 56.8308 49.9965C56.5102 49.9965 56.2626 50.1365 56.0881 50.4165C55.9137 50.6965 55.7513 51.1064 55.6012 51.6461L54.5481 51.3661C54.7673 50.5504 55.0412 49.9133 55.3699 49.4548C55.6986 48.9962 56.1653 48.767 56.7699 48.767C57.1067 48.767 57.48 48.8441 57.8899 48.9983C58.3038 49.1484 58.8374 49.4 59.4908 49.753C60.2171 50.1548 60.8096 50.4348 61.2681 50.593C61.7267 50.7472 62.1629 50.8243 62.5768 50.8243L62.449 52.0661ZM55.3395 57.0635L56.2768 56.1322L57.2081 57.0635L56.2768 58.0009L55.3395 57.0635ZM56.4899 59.0965L57.4273 58.1652L58.3586 59.0965L57.4273 60.0339L56.4899 59.0965ZM57.6403 57.0635L58.5777 56.1322L59.509 57.0635L58.5777 58.0009L57.6403 57.0635ZM67.7263 49.1139L68.8097 49.7104C68.619 50.0229 68.4628 50.3455 68.341 50.6783C68.2234 51.007 68.1645 51.3316 68.1645 51.6522C68.1645 52.3948 68.5358 52.9325 69.2784 53.2652C70.021 53.5939 71.0254 53.7583 72.2915 53.7583C73.5535 53.7583 74.5558 53.5939 75.2984 53.2652C76.0451 52.9325 76.4184 52.3948 76.4184 51.6522C76.4184 51.3316 76.3576 51.007 76.2358 50.6783C76.1141 50.3455 75.9579 50.0229 75.7671 49.7104L76.8567 49.1139C77.0758 49.4994 77.2645 49.9072 77.4228 50.3374C77.5851 50.7675 77.6663 51.2139 77.6663 51.6765C77.6663 52.2974 77.5161 52.8209 77.2158 53.247C76.9196 53.669 76.5179 54.0099 76.0106 54.2696C75.5034 54.5252 74.9271 54.7119 74.2819 54.8296C73.6408 54.9432 72.9773 55 72.2915 55C71.6016 55 70.9341 54.9432 70.2889 54.8296C69.6477 54.7119 69.0735 54.5252 68.5663 54.2696C68.059 54.0099 67.6553 53.669 67.355 53.247C67.0587 52.8209 66.9106 52.2974 66.9106 51.6765C66.9106 51.2139 66.9897 50.7675 67.148 50.3374C67.3103 49.9072 67.5031 49.4994 67.7263 49.1139ZM72.468 49.3939L73.4054 48.4626L74.3367 49.3939L73.4054 50.3313L72.468 49.3939ZM70.161 49.3939L71.0984 48.4626L72.0297 49.3939L71.0984 50.3313L70.161 49.3939ZM80.6645 45.2122C80.7253 45.8046 80.7781 46.3646 80.8227 46.8922C80.8714 47.4157 80.908 47.9472 80.9323 48.487C80.9607 49.0267 80.9749 49.611 80.9749 50.24C80.9749 51.0881 80.9404 51.9301 80.8714 52.7661C80.8024 53.602 80.6807 54.3548 80.5062 55.0243L79.2462 54.9696C79.4207 54.3122 79.5445 53.5533 79.6175 52.693C79.6906 51.8328 79.7271 50.9623 79.7271 50.0817C79.7271 49.4812 79.7129 48.9272 79.6845 48.42C79.6601 47.9087 79.6256 47.4055 79.581 46.9104C79.5364 46.4113 79.4856 45.8817 79.4288 45.3217L80.6645 45.2122ZM88.0722 53.5696C87.7273 54.0525 87.3174 54.4217 86.8426 54.6774C86.3679 54.933 85.8261 55.0609 85.2174 55.0609C84.3368 55.0609 83.6612 54.8275 83.1905 54.3609C82.7197 53.8942 82.4945 53.2246 82.5148 52.3522L83.6957 52.3887C83.7525 53.3423 84.2679 53.8191 85.2418 53.8191C86.1142 53.8191 86.867 53.3849 87.5 52.5165C87.151 51.709 86.798 50.9583 86.4409 50.2643C86.0838 49.5664 85.7064 48.8948 85.3087 48.2496L86.3435 47.5617C86.725 48.1826 87.1023 48.8501 87.4757 49.5643C87.849 50.2745 88.1939 50.9928 88.5105 51.7191C88.7661 52.2994 88.9873 52.7357 89.1739 53.0278C89.3606 53.32 89.5635 53.5148 89.7826 53.6122C90.0058 53.7096 90.2939 53.7583 90.647 53.7583H90.6531V55H90.647C90.0383 55 89.529 54.8843 89.1192 54.653C88.7093 54.4217 88.3603 54.0606 88.0722 53.5696ZM90.3928 54.3791C90.3928 54.2087 90.407 54.0626 90.4354 53.9409C90.4638 53.8191 90.5348 53.7583 90.6484 53.7583C91.4925 53.7583 92.089 53.6223 92.438 53.3504C92.791 53.0745 92.9534 52.5835 92.925 51.8774L92.8702 50.66L94.1058 50.5748L94.1302 51.287C94.1748 52.1026 94.3331 52.7194 94.605 53.1374C94.8809 53.5513 95.2989 53.7583 95.8589 53.7583H95.865V55H95.8589C95.2948 55 94.8038 54.8641 94.3858 54.5922C93.9719 54.3203 93.698 53.9632 93.5641 53.5209C93.4099 54.0078 93.1015 54.3771 92.6389 54.6287C92.1803 54.8762 91.5168 55 90.6484 55C90.5348 55 90.4638 54.9391 90.4354 54.8174C90.407 54.6957 90.3928 54.5496 90.3928 54.3791ZM91.5189 57.307L92.4563 56.3757L93.3876 57.307L92.4563 58.2443L91.5189 57.307ZM89.2119 57.307L90.1493 56.3757L91.0806 57.307L90.1493 58.2443L89.2119 57.307ZM98.6102 45.1696C98.7279 46.0055 98.8212 46.7359 98.8902 47.3609C98.9592 47.9858 99.0079 48.558 99.0363 49.0774C99.0647 49.5968 99.0789 50.1162 99.0789 50.6357C99.0789 51.2403 99.0302 51.8064 98.9328 52.3339C98.8354 52.8574 98.667 53.32 98.4276 53.7217C98.1923 54.1235 97.8656 54.438 97.4476 54.6652C97.0337 54.8884 96.5082 55 95.8711 55C95.7575 55 95.6865 54.9391 95.6581 54.8174C95.6296 54.6957 95.6154 54.5496 95.6154 54.3791C95.6154 54.2087 95.6296 54.0626 95.6581 53.9409C95.6865 53.8191 95.7575 53.7583 95.8711 53.7583C96.4189 53.7583 96.8328 53.6507 97.1128 53.4357C97.3969 53.2206 97.5876 52.8838 97.685 52.4252C97.7865 51.9667 97.8372 51.3701 97.8372 50.6357C97.8372 50.1365 97.823 49.6374 97.7946 49.1383C97.7662 48.6391 97.7175 48.0872 97.6485 47.4826C97.5795 46.8739 97.4882 46.1597 97.3746 45.34L98.6102 45.1696ZM105.407 53.7583H106.016V55H105.255C105.048 55.8157 104.565 56.5359 103.806 57.1609C103.051 57.7899 102.059 58.3438 100.829 58.8226L100.361 57.6783C101.262 57.309 102.031 56.8951 102.668 56.4365C103.309 55.978 103.735 55.4991 103.946 55H103.228C102.465 55 101.84 54.8377 101.353 54.513C100.866 54.1884 100.622 53.6507 100.622 52.9C100.622 52.5186 100.669 52.1249 100.762 51.7191C100.856 51.3093 100.998 50.9299 101.189 50.5809C101.383 50.2278 101.629 49.9438 101.925 49.7287C102.221 49.5096 102.572 49.4 102.978 49.4C103.416 49.4 103.79 49.542 104.098 49.8261C104.411 50.1101 104.664 50.4754 104.859 50.9217C105.054 51.3641 105.196 51.8368 105.285 52.34C105.374 52.8432 105.415 53.3159 105.407 53.7583ZM104.281 53.7583C104.293 53.1739 104.23 52.6484 104.092 52.1817C103.954 51.711 103.773 51.3377 103.55 51.0617C103.327 50.7858 103.094 50.6478 102.85 50.6478C102.643 50.6478 102.449 50.7391 102.266 50.9217C102.083 51.1003 101.935 51.3438 101.822 51.6522C101.708 51.9606 101.651 52.3096 101.651 52.6991C101.651 53.0603 101.769 53.3281 102.004 53.5026C102.24 53.673 102.68 53.7583 103.325 53.7583H104.281ZM108.907 49.3696C109.094 49.9093 109.238 50.4267 109.339 50.9217C109.445 51.4168 109.497 51.8652 109.497 52.267C109.497 53.1435 109.228 53.8191 108.688 54.2939C108.148 54.7646 107.257 55 106.016 55C105.902 55 105.831 54.9391 105.803 54.8174C105.774 54.6957 105.76 54.5496 105.76 54.3791C105.76 54.2087 105.774 54.0626 105.803 53.9409C105.831 53.8191 105.902 53.7583 106.016 53.7583C106.612 53.7583 107.073 53.7136 107.397 53.6243C107.722 53.5351 107.945 53.389 108.067 53.1861C108.193 52.9832 108.256 52.7154 108.256 52.3826C108.256 52.0296 108.211 51.6339 108.122 51.1957C108.032 50.7533 107.909 50.2968 107.75 49.8261L108.907 49.3696ZM107.939 47.2209L108.876 46.2896L109.808 47.2209L108.876 48.1583L107.939 47.2209ZM105.632 47.2209L106.57 46.2896L107.501 47.2209L106.57 48.1583L105.632 47.2209ZM115.523 51.3174C115.361 51.918 115.239 52.4577 115.158 52.9365C115.081 53.4113 115.042 53.8374 115.042 54.2148C115.042 56.2072 116.132 57.2035 118.311 57.2035C119.366 57.2035 120.17 56.962 120.721 56.4791C121.273 56.0003 121.549 55.3023 121.549 54.3852C121.549 54.0971 121.515 53.7846 121.446 53.4478C121.377 53.107 121.277 52.7336 121.148 52.3278L120.685 50.9035L121.854 50.4835L122.444 52.413C122.594 52.9081 122.823 53.2571 123.132 53.46C123.444 53.6588 123.885 53.7583 124.453 53.7583H124.459V55H124.453C124.12 55 123.793 54.9493 123.473 54.8478C123.156 54.7464 122.905 54.5841 122.718 54.3609C122.754 55.2049 122.6 55.9313 122.255 56.54C121.914 57.1528 121.407 57.6235 120.734 57.9522C120.06 58.2809 119.246 58.4452 118.293 58.4452C116.868 58.4452 115.767 58.0881 114.988 57.3739C114.212 56.6638 113.825 55.6452 113.825 54.3183C113.825 53.8475 113.87 53.318 113.959 52.7296C114.052 52.1371 114.18 51.5446 114.342 50.9522L115.523 51.3174ZM117.307 52.3704L118.244 51.4391L119.175 52.3704L118.244 53.3078L117.307 52.3704ZM128.263 49.3696C128.45 49.9093 128.594 50.4267 128.696 50.9217C128.801 51.4168 128.854 51.8652 128.854 52.267C128.854 53.1435 128.584 53.8191 128.044 54.2939C127.504 54.7646 126.614 55 125.372 55H124.459C124.345 55 124.274 54.9391 124.246 54.8174C124.218 54.6957 124.203 54.5496 124.203 54.3791C124.203 54.2087 124.218 54.0626 124.246 53.9409C124.274 53.8191 124.345 53.7583 124.459 53.7583H125.372C125.969 53.7583 126.429 53.7136 126.754 53.6243C127.078 53.5351 127.302 53.389 127.423 53.1861C127.549 52.9832 127.612 52.7154 127.612 52.3826C127.612 52.0296 127.567 51.6339 127.478 51.1957C127.389 50.7533 127.265 50.2968 127.107 49.8261L128.263 49.3696ZM126.242 57.307L127.18 56.3757L128.111 57.307L127.18 58.2443L126.242 57.307ZM123.936 57.307L124.873 56.3757L125.804 57.307L124.873 58.2443L123.936 57.307ZM133.925 54.4522C133.933 54.6835 133.92 54.9006 133.888 55.1035C133.791 55.5742 133.598 56.0023 133.31 56.3878C133.026 56.7774 132.6 57.1649 132.031 57.5504C131.463 57.94 130.709 58.3681 129.767 58.8348L129.219 57.7209C129.925 57.3678 130.51 57.0472 130.972 56.7591C131.435 56.4751 131.798 56.2012 132.062 55.9374C132.33 55.6777 132.518 55.4078 132.628 55.1278C132.742 54.8519 132.798 54.5455 132.798 54.2087C132.798 53.8232 132.744 53.46 132.634 53.1191L131.873 50.8548L133.042 50.453L133.839 52.8148C133.949 53.1394 134.146 53.3788 134.43 53.533C134.718 53.6832 135.113 53.7583 135.617 53.7583H135.623V55H135.617C135.247 55 134.911 54.9533 134.606 54.86C134.306 54.7626 134.079 54.6267 133.925 54.4522ZM138.52 49.3696C138.707 49.9093 138.851 50.4267 138.952 50.9217C139.058 51.4168 139.111 51.8652 139.111 52.267C139.111 53.1435 138.841 53.8191 138.301 54.2939C137.761 54.7646 136.871 55 135.629 55C135.515 55 135.444 54.9391 135.416 54.8174C135.387 54.6957 135.373 54.5496 135.373 54.3791C135.373 54.2087 135.387 54.0626 135.416 53.9409C135.444 53.8191 135.515 53.7583 135.629 53.7583C136.225 53.7583 136.686 53.7136 137.011 53.6243C137.335 53.5351 137.558 53.389 137.68 53.1861C137.806 52.9832 137.869 52.7154 137.869 52.3826C137.869 52.0296 137.824 51.6339 137.735 51.1957C137.646 50.7533 137.522 50.2968 137.364 49.8261L138.52 49.3696ZM137.552 47.2209L138.49 46.2896L139.421 47.2209L138.49 48.1583L137.552 47.2209ZM135.245 47.2209L136.183 46.2896L137.114 47.2209L136.183 48.1583L135.245 47.2209ZM145.941 49.1748L146.878 48.2435L147.809 49.1748L146.878 50.1122L145.941 49.1748ZM143.634 49.1748L144.571 48.2435L145.502 49.1748L144.571 50.1122L143.634 49.1748ZM141.978 49.7896C141.824 50.0777 141.7 50.382 141.607 50.7026C141.513 51.0191 141.467 51.3296 141.467 51.6339C141.467 52.3887 141.773 52.9325 142.386 53.2652C142.999 53.5939 143.826 53.7583 144.869 53.7583C146.464 53.7583 147.7 53.4641 148.576 52.8757C149.453 52.2832 150.031 51.4412 150.311 50.3496L151.498 50.6904C151.437 50.8974 151.38 51.1145 151.328 51.3417C151.279 51.569 151.255 51.7881 151.255 51.9991C151.255 52.4942 151.401 52.9122 151.693 53.253C151.989 53.5899 152.45 53.7583 153.075 53.7583H153.081V55H153.075C152.332 55 151.715 54.7991 151.224 54.3974C150.733 53.9957 150.421 53.4661 150.287 52.8087C149.751 53.5635 149.015 54.1174 148.077 54.4704C147.144 54.8235 146.079 55 144.882 55C144.005 55 143.216 54.8864 142.514 54.6591C141.812 54.4278 141.256 54.0687 140.846 53.5817C140.436 53.0948 140.231 52.4617 140.231 51.6826C140.231 51.2809 140.288 50.8791 140.402 50.4774C140.515 50.0716 140.669 49.6719 140.864 49.2783L141.978 49.7896ZM152.819 54.3791C152.819 54.2087 152.833 54.0626 152.861 53.9409C152.89 53.8191 152.961 53.7583 153.074 53.7583C153.918 53.7583 154.515 53.6223 154.864 53.3504C155.217 53.0745 155.379 52.5835 155.351 51.8774L155.296 50.66L156.532 50.5748L156.556 51.287C156.601 52.1026 156.759 52.7194 157.031 53.1374C157.307 53.5513 157.725 53.7583 158.285 53.7583H158.291V55H158.285C157.721 55 157.23 54.8641 156.812 54.5922C156.398 54.3203 156.124 53.9632 155.99 53.5209C155.836 54.0078 155.527 54.3771 155.065 54.6287C154.606 54.8762 153.943 55 153.074 55C152.961 55 152.89 54.9391 152.861 54.8174C152.833 54.6957 152.819 54.5496 152.819 54.3791ZM153.945 57.307L154.882 56.3757L155.813 57.307L154.882 58.2443L153.945 57.307ZM151.638 57.307L152.575 56.3757L153.506 57.307L152.575 58.2443L151.638 57.307ZM160.598 45.4009L161.535 44.4696L162.466 45.4009L161.535 46.3383L160.598 45.4009ZM161.474 54.3913C160.577 54.7971 159.518 55 158.297 55C158.183 55 158.112 54.9391 158.084 54.8174C158.055 54.6957 158.041 54.5496 158.041 54.3791C158.041 54.2087 158.055 54.0626 158.084 53.9409C158.112 53.8191 158.183 53.7583 158.297 53.7583C158.65 53.7583 158.989 53.7339 159.313 53.6852C159.638 53.6365 159.934 53.5696 160.202 53.4843C159.849 53.1922 159.555 52.829 159.319 52.3948C159.084 51.9565 158.966 51.4858 158.966 50.9826C158.966 50.4672 159.074 50.0026 159.289 49.5887C159.504 49.1707 159.802 48.84 160.184 48.5965C160.565 48.353 161.006 48.2313 161.505 48.2313C162.004 48.2313 162.438 48.353 162.807 48.5965C163.181 48.84 163.469 49.1667 163.672 49.5765C163.879 49.9864 163.982 50.4429 163.982 50.9461C163.982 51.4574 163.864 51.9342 163.629 52.3765C163.394 52.8148 163.097 53.182 162.74 53.4783C163.296 53.6649 163.931 53.7583 164.646 53.7583H164.652V55H164.646C164.041 55 163.469 54.9472 162.929 54.8417C162.393 54.7362 161.908 54.5861 161.474 54.3913ZM161.474 52.9913C161.848 52.76 162.152 52.4719 162.387 52.127C162.623 51.782 162.74 51.3884 162.74 50.9461C162.74 50.5119 162.629 50.1588 162.406 49.887C162.186 49.611 161.886 49.473 161.505 49.473C161.115 49.473 160.801 49.6151 160.561 49.8991C160.326 50.1832 160.208 50.5443 160.208 50.9826C160.208 51.4168 160.326 51.8043 160.561 52.1452C160.801 52.482 161.105 52.7641 161.474 52.9913ZM164.399 54.3791C164.399 54.2087 164.413 54.0626 164.441 53.9409C164.47 53.8191 164.541 53.7583 164.654 53.7583C165.498 53.7583 166.095 53.6223 166.444 53.3504C166.797 53.0745 166.959 52.5835 166.931 51.8774L166.876 50.66L168.112 50.5748L168.136 51.287C168.181 52.1026 168.339 52.7194 168.611 53.1374C168.887 53.5513 169.305 53.7583 169.865 53.7583H169.871V55H169.865C169.301 55 168.81 54.8641 168.392 54.5922C167.978 54.3203 167.704 53.9632 167.57 53.5209C167.416 54.0078 167.107 54.3771 166.645 54.6287C166.186 54.8762 165.523 55 164.654 55C164.541 55 164.47 54.9391 164.441 54.8174C164.413 54.6957 164.399 54.5496 164.399 54.3791ZM165.525 57.307L166.462 56.3757L167.393 57.307L166.462 58.2443L165.525 57.307ZM163.218 57.307L164.155 56.3757L165.086 57.307L164.155 58.2443L163.218 57.307ZM171.472 47.9391C172.409 48.7264 173.115 49.4548 173.59 50.1243C174.069 50.7899 174.308 51.4655 174.308 52.1513C174.308 52.7357 174.126 53.2409 173.76 53.667C173.395 54.093 172.88 54.4217 172.214 54.653C171.549 54.8843 170.77 55 169.877 55C169.763 55 169.692 54.9391 169.664 54.8174C169.636 54.6957 169.621 54.5496 169.621 54.3791C169.621 54.2087 169.636 54.0626 169.664 53.9409C169.692 53.8191 169.763 53.7583 169.877 53.7583C170.912 53.7583 171.701 53.6183 172.245 53.3383C172.793 53.0542 173.067 52.6809 173.067 52.2183C173.067 51.711 172.801 51.149 172.269 50.5322C171.742 49.9113 170.952 49.1951 169.901 48.3835L169.987 47.2878C170.579 46.9794 171.214 46.6913 171.892 46.4235C172.573 46.1516 173.259 45.9122 173.949 45.7052C174.639 45.4942 175.298 45.3278 175.927 45.2061L176.195 46.4174C175.708 46.5107 175.191 46.6345 174.643 46.7887C174.099 46.9429 173.553 47.1194 173.006 47.3183C172.462 47.513 171.951 47.72 171.472 47.9391ZM182.511 55H182.505C181.515 55 180.78 54.7646 180.301 54.2939C179.827 53.8232 179.589 53.0968 179.589 52.1148V49.4487C179.589 48.7507 179.579 48.1542 179.559 47.6591C179.539 47.1641 179.506 46.7359 179.461 46.3748C179.417 46.0136 179.36 45.689 179.291 45.4009L180.496 45.1026C180.577 45.4354 180.642 45.7965 180.691 46.1861C180.74 46.5716 180.774 47.0241 180.794 47.5435C180.819 48.0588 180.831 48.6797 180.831 49.4061V52.1148C180.831 52.7397 180.951 53.1699 181.19 53.4052C181.43 53.6406 181.868 53.7583 182.505 53.7583H182.511V55ZM185.401 49.3696C185.588 49.9093 185.732 50.4267 185.833 50.9217C185.939 51.4168 185.992 51.8652 185.992 52.267C185.992 53.1435 185.722 53.8191 185.182 54.2939C184.642 54.7646 183.752 55 182.51 55C182.396 55 182.325 54.9391 182.297 54.8174C182.268 54.6957 182.254 54.5496 182.254 54.3791C182.254 54.2087 182.268 54.0626 182.297 53.9409C182.325 53.8191 182.396 53.7583 182.51 53.7583C183.106 53.7583 183.567 53.7136 183.892 53.6243C184.216 53.5351 184.439 53.389 184.561 53.1861C184.687 52.9832 184.75 52.7154 184.75 52.3826C184.75 52.0296 184.705 51.6339 184.616 51.1957C184.527 50.7533 184.403 50.2968 184.245 49.8261L185.401 49.3696ZM182.327 57.4591L183.265 56.5278L184.196 57.4591L183.265 58.3965L182.327 57.4591Z" fill="#696969"></path><path d="M243.54 27.5539C243.143 27.4554 242.523 26.9924 242.636 26.5096C242.718 26.1537 242.873 25.9012 242.358 25.7312C242.073 25.6374 241.765 25.7052 241.504 25.8366C241.098 25.778 240.691 25.6997 240.29 25.5989C235.798 24.4708 232.362 20.8096 230.241 16.8377C230.091 16.5587 229.947 16.2754 229.812 15.9874C229.627 15.5928 229.598 15.1953 229.046 15.4789C228.482 17.2317 231.104 23.3493 232.497 23.7981C231.19 23.6659 230.036 24.3211 228.815 24.6443C227.474 25.0011 226.037 24.8956 224.695 24.5995C222.527 24.1169 220.203 23.1687 218.808 21.3711C217.198 19.2988 216.142 16.7929 215.183 14.3711C214.491 12.6267 214.018 10.7097 213.162 9.04043C212.534 10.8751 212.347 16.05 214.541 20.3355C206.181 12.3527 204.758 2.5105 203 2C203.17 3.19224 203.282 4.38302 203.544 5.56098C204.007 7.63968 204.778 9.63742 205.727 11.5408C207.267 14.6315 209.255 17.4874 211.412 20.1753C213.235 22.4457 215.451 24.43 218.054 25.7658C221.543 27.5544 225.538 28.0149 229.37 27.2734C230.823 26.9936 232.209 26.3858 233.713 26.5521C234.946 26.6869 236.148 27.1339 237.231 27.7283C237.548 27.9027 237.867 28.0915 238.151 28.3192C238.576 28.6587 238.26 29.1002 238.463 29.4913C238.639 29.8393 239.256 29.7817 239.582 29.7863C239.906 29.7933 240.053 30.0082 240.204 30.2668C241.578 29.3218 243.862 27.6334 243.54 27.5539Z" fill="#653A2A"></path><path d="M289 20.3359C291.194 16.0504 291.008 10.8755 290.379 9.04082C289.523 10.7101 289.048 12.6271 288.358 14.3715C287.4 16.7933 286.342 19.2992 284.733 21.3715C283.336 23.1691 281.014 24.1173 278.846 24.5999C277.503 24.896 276.068 25.0015 274.727 24.6447C273.505 24.3215 272.35 23.6662 271.045 23.7985C272.437 23.3497 275.059 17.2321 274.494 15.4793C273.942 15.1957 273.913 15.5932 273.728 15.9878C273.594 16.2758 273.45 16.5588 273.301 16.8381C271.179 20.81 267.743 24.4709 263.25 25.5993C262.849 25.7001 262.443 25.7784 262.037 25.837C261.777 25.7056 261.467 25.6378 261.185 25.7315C260.666 25.9016 260.822 26.1544 260.906 26.51C261.019 26.9928 260.397 27.4555 260.002 27.5543C259.679 27.6335 261.963 29.3219 263.338 30.2678C263.487 30.0092 263.636 29.7943 263.959 29.7873C264.285 29.7826 264.9 29.8403 265.079 29.4923C265.28 29.1012 264.966 28.6594 265.39 28.3202C265.673 28.0924 265.993 27.9037 266.311 27.7293C267.393 27.1349 268.595 26.6879 269.828 26.5531C271.331 26.3868 272.72 26.9945 274.171 27.2744C278.002 28.0158 281.998 27.5554 285.487 25.7668C288.089 24.4313 290.306 22.4466 292.129 20.1763C294.286 17.4884 296.275 14.6325 297.815 11.5418C298.763 9.63839 299.534 7.64066 299.996 5.56196C300.258 4.3837 300.371 3.19321 300.541 2.00098C298.784 2.51119 297.361 12.3534 289 20.3359Z" fill="#653A2A"></path><path d="M227.015 53.0354C227.21 53.0354 227.406 53.0861 227.584 53.195C228.105 53.5107 228.27 54.1863 227.954 54.7064L224.864 59.7998H278.678L275.588 54.7064C275.272 54.1878 275.438 53.5107 275.957 53.195C276.475 52.8799 277.153 53.0448 277.468 53.5652L281.573 60.3304C281.779 60.6688 281.786 61.0937 281.591 61.439C281.396 61.7859 281.03 61.9999 280.633 61.9999H222.909C222.511 61.9999 222.145 61.7859 221.95 61.439C221.755 61.0937 221.762 60.6688 221.968 60.3304L226.074 53.5652C226.28 53.2241 226.643 53.0354 227.015 53.0354Z" fill="#653A2A"></path><path d="M251.772 12.2417C252.156 12.2417 252.512 12.4435 252.711 12.772L268.911 39.4634C269.226 39.9835 269.061 40.6608 268.542 40.9748C268.021 41.2896 267.346 41.1245 267.03 40.6055L251.772 15.4622L236.512 40.6078C236.197 41.1271 235.519 41.2907 235.001 40.9768C234.481 40.6614 234.315 39.9849 234.63 39.4651L250.831 12.772C251.03 12.4432 251.387 12.2417 251.772 12.2417Z" fill="#653A2A"></path><mask id="path-7-outside-1_504_450" maskUnits="userSpaceOnUse" x="224" y="40" width="56" height="14" fill="black"><rect fill="white" x="224" y="40" width="56" height="14"></rect><path d="M230.87 51.8456C230.84 52.5019 230.447 52.8777 229.689 52.9732C229.546 52.9911 229.391 53 229.224 53C228.233 53 227.136 52.8628 225.931 52.5884C225.531 52.4929 225.221 52.4034 225 52.3199L226.163 44.5615C226.36 43.2431 226.56 42.3691 226.763 41.9396C226.978 41.5041 227.255 41.2834 227.595 41.2774L225.975 52.1409H227.255C228.782 52.1409 229.808 52.0902 230.333 51.9888C230.53 51.9471 230.709 51.8993 230.87 51.8456Z"></path><path d="M237.904 47.6219C237.301 47.5623 236.457 47.5324 235.371 47.5324C234.799 47.5324 234.301 47.5682 233.877 47.6398L233.206 52.1409H234.485C236.013 52.1409 237.039 52.0902 237.564 51.9888C237.761 51.9471 237.94 51.8993 238.101 51.8456C238.071 52.5019 237.677 52.8777 236.919 52.9732C236.776 52.9911 236.621 53 236.454 53C235.464 53 234.366 52.8628 233.161 52.5884C232.761 52.4929 232.451 52.4034 232.23 52.3199L233.394 44.5615C233.591 43.2431 233.823 42.3482 234.092 41.877C234.324 41.4773 234.611 41.2774 234.951 41.2774H237.993C238.584 41.2774 239.04 41.1849 239.362 41C239.362 41.519 239.186 41.8471 238.834 41.9843C238.626 42.0619 238.247 42.1007 237.698 42.1007C236.767 42.1007 235.837 41.9993 234.906 41.7964C234.852 41.7845 234.802 41.7726 234.754 41.7606L233.94 47.2103C234.22 46.9478 234.828 46.8046 235.765 46.7808C235.908 46.7808 236.084 46.7808 236.293 46.7808C237.146 46.7808 237.773 46.7987 238.172 46.8345C238.13 47.1327 238.041 47.3952 237.904 47.6219Z"></path><path d="M244.4 49.3221C244.186 49.3937 243.953 49.4295 243.702 49.4295H241.707C241.343 49.4295 241.012 49.4504 240.714 49.4922C240.099 51.1626 239.619 52.2006 239.273 52.6063C239.064 52.8449 238.799 52.9761 238.477 53C238.423 53 238.36 53 238.289 53C239.034 51.9441 239.926 49.9336 240.964 46.9687L242.799 41.7159C242.972 41.4236 243.198 41.2506 243.479 41.1969C243.521 41.1909 243.559 41.1879 243.595 41.1879C243.72 41.1879 243.819 41.2088 243.89 41.2506L245.116 47.8188C245.516 49.9128 245.955 51.6219 246.432 52.9463C246.318 52.9821 246.214 53 246.119 53C245.844 52.994 245.611 52.8717 245.421 52.6331C245.116 52.2334 244.809 51.2938 244.499 49.8143C244.469 49.6592 244.436 49.4952 244.4 49.3221ZM244.293 48.7852C244.251 48.5764 244.207 48.3289 244.159 48.0425L243.139 42.5034L241.51 47.2461C241.462 47.3893 241.391 47.5981 241.295 47.8725C241.128 48.3617 241.006 48.7107 240.928 48.9195C241.268 48.8061 241.892 48.7494 242.799 48.7494C243.342 48.7494 243.84 48.7614 244.293 48.7852Z"></path><path d="M252.624 42.0828C252.272 42.0828 251.771 42.0708 251.121 42.047C250.984 42.041 250.84 42.038 250.691 42.038L249.063 52.9105H248.114L249.752 42.0112C249.543 42.0112 249.352 42.0112 249.179 42.0112C247.747 42.0112 246.802 42.0798 246.342 42.217C246.342 41.9485 246.503 41.7338 246.826 41.5727C246.903 41.5369 246.981 41.5071 247.058 41.4832C247.607 41.346 249.012 41.2774 251.273 41.2774C252.579 41.2774 253.459 41.2983 253.913 41.34C253.835 41.8292 253.406 42.0768 252.624 42.0828Z"></path><path d="M261.957 41.2774H262.826L261.089 52.9105H260.23L261.036 47.4698H256.409C256.045 49.7666 255.694 51.2759 255.353 51.9978C255.091 52.5645 254.745 52.8896 254.315 52.9732C254.22 52.9911 254.122 53 254.02 53C253.847 52.994 253.713 52.9553 253.617 52.8837C254.059 52.5078 254.408 51.9351 254.664 51.1655C254.987 50.223 255.371 48.3318 255.819 45.4922C255.956 44.6092 256.141 43.3893 256.374 41.8322C255.413 41.8382 254.712 41.8859 254.271 41.9754C254.295 41.6532 254.491 41.4444 254.861 41.349C255.154 41.2774 255.586 41.2416 256.159 41.2416C256.433 41.2416 256.818 41.2535 257.313 41.2774L257.179 42.226C256.881 44.3318 256.66 45.8561 256.517 46.7987H261.134L261.957 41.2774Z"></path><path d="M268.83 47.6219C268.227 47.5623 267.383 47.5324 266.298 47.5324C265.725 47.5324 265.227 47.5682 264.803 47.6398L264.132 52.1409H265.412C266.939 52.1409 267.965 52.0902 268.49 51.9888C268.687 51.9471 268.866 51.8993 269.027 51.8456C268.997 52.5019 268.603 52.8777 267.846 52.9732C267.702 52.9911 267.547 53 267.38 53C266.39 53 265.292 52.8628 264.087 52.5884C263.688 52.4929 263.377 52.4034 263.157 52.3199L264.32 44.5615C264.517 43.2431 264.749 42.3482 265.018 41.877C265.251 41.4773 265.537 41.2774 265.877 41.2774H268.919C269.51 41.2774 269.966 41.1849 270.289 41C270.289 41.519 270.113 41.8471 269.761 41.9843C269.552 42.0619 269.173 42.1007 268.624 42.1007C267.694 42.1007 266.763 41.9993 265.832 41.7964C265.779 41.7845 265.728 41.7726 265.68 41.7606L264.866 47.2103C265.146 46.9478 265.755 46.8046 266.691 46.7808C266.834 46.7808 267.01 46.7808 267.219 46.7808C268.072 46.7808 268.699 46.7987 269.098 46.8345C269.057 47.1327 268.967 47.3952 268.83 47.6219Z"></path><path d="M274.745 47.6488C275.27 48.0067 275.819 48.6421 276.391 49.5548C276.451 49.6443 276.511 49.7368 276.57 49.8322C277.382 51.1566 278.074 52.138 278.647 52.7763C278.7 52.83 278.751 52.8837 278.799 52.9374C278.661 52.9791 278.521 53 278.378 53C277.871 53 277.346 52.6152 276.803 51.8456C276.576 51.5235 276.308 51.085 275.998 50.5302C275.169 49.0507 274.509 48.123 274.02 47.7472C273.865 47.6339 273.722 47.5593 273.591 47.5235L273.68 47.1745H273.966C274.975 47.1745 275.81 46.9001 276.472 46.3512C277.158 45.7785 277.504 45.0149 277.51 44.0604C277.51 43.094 277.113 42.4079 276.32 42.0022C275.878 41.7755 275.35 41.6622 274.736 41.6622C274.462 41.6622 274.178 41.6801 273.886 41.7159L272.204 52.9105H271.255L272.911 41.9038C272.123 42.0947 271.431 42.3632 270.834 42.7092C270.834 42.2975 271.24 41.9426 272.051 41.6443C272.887 41.34 273.811 41.1879 274.826 41.1879C275.935 41.1879 276.839 41.4594 277.537 42.0022C278.205 42.5272 278.542 43.2073 278.548 44.0425C278.548 44.9075 278.205 45.689 277.519 46.387C276.893 47.0254 276.156 47.4251 275.309 47.5861C275.118 47.6219 274.93 47.6428 274.745 47.6488Z"></path></mask><path d="M230.87 51.8456C230.84 52.5019 230.447 52.8777 229.689 52.9732C229.546 52.9911 229.391 53 229.224 53C228.233 53 227.136 52.8628 225.931 52.5884C225.531 52.4929 225.221 52.4034 225 52.3199L226.163 44.5615C226.36 43.2431 226.56 42.3691 226.763 41.9396C226.978 41.5041 227.255 41.2834 227.595 41.2774L225.975 52.1409H227.255C228.782 52.1409 229.808 52.0902 230.333 51.9888C230.53 51.9471 230.709 51.8993 230.87 51.8456Z" fill="#A16A51"></path><path d="M237.904 47.6219C237.301 47.5623 236.457 47.5324 235.371 47.5324C234.799 47.5324 234.301 47.5682 233.877 47.6398L233.206 52.1409H234.485C236.013 52.1409 237.039 52.0902 237.564 51.9888C237.761 51.9471 237.94 51.8993 238.101 51.8456C238.071 52.5019 237.677 52.8777 236.919 52.9732C236.776 52.9911 236.621 53 236.454 53C235.464 53 234.366 52.8628 233.161 52.5884C232.761 52.4929 232.451 52.4034 232.23 52.3199L233.394 44.5615C233.591 43.2431 233.823 42.3482 234.092 41.877C234.324 41.4773 234.611 41.2774 234.951 41.2774H237.993C238.584 41.2774 239.04 41.1849 239.362 41C239.362 41.519 239.186 41.8471 238.834 41.9843C238.626 42.0619 238.247 42.1007 237.698 42.1007C236.767 42.1007 235.837 41.9993 234.906 41.7964C234.852 41.7845 234.802 41.7726 234.754 41.7606L233.94 47.2103C234.22 46.9478 234.828 46.8046 235.765 46.7808C235.908 46.7808 236.084 46.7808 236.293 46.7808C237.146 46.7808 237.773 46.7987 238.172 46.8345C238.13 47.1327 238.041 47.3952 237.904 47.6219Z" fill="#A16A51"></path><path d="M244.4 49.3221C244.186 49.3937 243.953 49.4295 243.702 49.4295H241.707C241.343 49.4295 241.012 49.4504 240.714 49.4922C240.099 51.1626 239.619 52.2006 239.273 52.6063C239.064 52.8449 238.799 52.9761 238.477 53C238.423 53 238.36 53 238.289 53C239.034 51.9441 239.926 49.9336 240.964 46.9687L242.799 41.7159C242.972 41.4236 243.198 41.2506 243.479 41.1969C243.521 41.1909 243.559 41.1879 243.595 41.1879C243.72 41.1879 243.819 41.2088 243.89 41.2506L245.116 47.8188C245.516 49.9128 245.955 51.6219 246.432 52.9463C246.318 52.9821 246.214 53 246.119 53C245.844 52.994 245.611 52.8717 245.421 52.6331C245.116 52.2334 244.809 51.2938 244.499 49.8143C244.469 49.6592 244.436 49.4952 244.4 49.3221ZM244.293 48.7852C244.251 48.5764 244.207 48.3289 244.159 48.0425L243.139 42.5034L241.51 47.2461C241.462 47.3893 241.391 47.5981 241.295 47.8725C241.128 48.3617 241.006 48.7107 240.928 48.9195C241.268 48.8061 241.892 48.7494 242.799 48.7494C243.342 48.7494 243.84 48.7614 244.293 48.7852Z" fill="#A16A51"></path><path d="M252.624 42.0828C252.272 42.0828 251.771 42.0708 251.121 42.047C250.984 42.041 250.84 42.038 250.691 42.038L249.063 52.9105H248.114L249.752 42.0112C249.543 42.0112 249.352 42.0112 249.179 42.0112C247.747 42.0112 246.802 42.0798 246.342 42.217C246.342 41.9485 246.503 41.7338 246.826 41.5727C246.903 41.5369 246.981 41.5071 247.058 41.4832C247.607 41.346 249.012 41.2774 251.273 41.2774C252.579 41.2774 253.459 41.2983 253.913 41.34C253.835 41.8292 253.406 42.0768 252.624 42.0828Z" fill="#A16A51"></path><path d="M261.957 41.2774H262.826L261.089 52.9105H260.23L261.036 47.4698H256.409C256.045 49.7666 255.694 51.2759 255.353 51.9978C255.091 52.5645 254.745 52.8896 254.315 52.9732C254.22 52.9911 254.122 53 254.02 53C253.847 52.994 253.713 52.9553 253.617 52.8837C254.059 52.5078 254.408 51.9351 254.664 51.1655C254.987 50.223 255.371 48.3318 255.819 45.4922C255.956 44.6092 256.141 43.3893 256.374 41.8322C255.413 41.8382 254.712 41.8859 254.271 41.9754C254.295 41.6532 254.491 41.4444 254.861 41.349C255.154 41.2774 255.586 41.2416 256.159 41.2416C256.433 41.2416 256.818 41.2535 257.313 41.2774L257.179 42.226C256.881 44.3318 256.66 45.8561 256.517 46.7987H261.134L261.957 41.2774Z" fill="#A16A51"></path><path d="M268.83 47.6219C268.227 47.5623 267.383 47.5324 266.298 47.5324C265.725 47.5324 265.227 47.5682 264.803 47.6398L264.132 52.1409H265.412C266.939 52.1409 267.965 52.0902 268.49 51.9888C268.687 51.9471 268.866 51.8993 269.027 51.8456C268.997 52.5019 268.603 52.8777 267.846 52.9732C267.702 52.9911 267.547 53 267.38 53C266.39 53 265.292 52.8628 264.087 52.5884C263.688 52.4929 263.377 52.4034 263.157 52.3199L264.32 44.5615C264.517 43.2431 264.749 42.3482 265.018 41.877C265.251 41.4773 265.537 41.2774 265.877 41.2774H268.919C269.51 41.2774 269.966 41.1849 270.289 41C270.289 41.519 270.113 41.8471 269.761 41.9843C269.552 42.0619 269.173 42.1007 268.624 42.1007C267.694 42.1007 266.763 41.9993 265.832 41.7964C265.779 41.7845 265.728 41.7726 265.68 41.7606L264.866 47.2103C265.146 46.9478 265.755 46.8046 266.691 46.7808C266.834 46.7808 267.01 46.7808 267.219 46.7808C268.072 46.7808 268.699 46.7987 269.098 46.8345C269.057 47.1327 268.967 47.3952 268.83 47.6219Z" fill="#A16A51"></path><path d="M274.745 47.6488C275.27 48.0067 275.819 48.6421 276.391 49.5548C276.451 49.6443 276.511 49.7368 276.57 49.8322C277.382 51.1566 278.074 52.138 278.647 52.7763C278.7 52.83 278.751 52.8837 278.799 52.9374C278.661 52.9791 278.521 53 278.378 53C277.871 53 277.346 52.6152 276.803 51.8456C276.576 51.5235 276.308 51.085 275.998 50.5302C275.169 49.0507 274.509 48.123 274.02 47.7472C273.865 47.6339 273.722 47.5593 273.591 47.5235L273.68 47.1745H273.966C274.975 47.1745 275.81 46.9001 276.472 46.3512C277.158 45.7785 277.504 45.0149 277.51 44.0604C277.51 43.094 277.113 42.4079 276.32 42.0022C275.878 41.7755 275.35 41.6622 274.736 41.6622C274.462 41.6622 274.178 41.6801 273.886 41.7159L272.204 52.9105H271.255L272.911 41.9038C272.123 42.0947 271.431 42.3632 270.834 42.7092C270.834 42.2975 271.24 41.9426 272.051 41.6443C272.887 41.34 273.811 41.1879 274.826 41.1879C275.935 41.1879 276.839 41.4594 277.537 42.0022C278.205 42.5272 278.542 43.2073 278.548 44.0425C278.548 44.9075 278.205 45.689 277.519 46.387C276.893 47.0254 276.156 47.4251 275.309 47.5861C275.118 47.6219 274.93 47.6428 274.745 47.6488Z" fill="#A16A51"></path><path d="M230.87 51.8456C230.84 52.5019 230.447 52.8777 229.689 52.9732C229.546 52.9911 229.391 53 229.224 53C228.233 53 227.136 52.8628 225.931 52.5884C225.531 52.4929 225.221 52.4034 225 52.3199L226.163 44.5615C226.36 43.2431 226.56 42.3691 226.763 41.9396C226.978 41.5041 227.255 41.2834 227.595 41.2774L225.975 52.1409H227.255C228.782 52.1409 229.808 52.0902 230.333 51.9888C230.53 51.9471 230.709 51.8993 230.87 51.8456Z" stroke="#A16A51" stroke-width="0.6" mask="url(#path-7-outside-1_504_450)"></path><path d="M237.904 47.6219C237.301 47.5623 236.457 47.5324 235.371 47.5324C234.799 47.5324 234.301 47.5682 233.877 47.6398L233.206 52.1409H234.485C236.013 52.1409 237.039 52.0902 237.564 51.9888C237.761 51.9471 237.94 51.8993 238.101 51.8456C238.071 52.5019 237.677 52.8777 236.919 52.9732C236.776 52.9911 236.621 53 236.454 53C235.464 53 234.366 52.8628 233.161 52.5884C232.761 52.4929 232.451 52.4034 232.23 52.3199L233.394 44.5615C233.591 43.2431 233.823 42.3482 234.092 41.877C234.324 41.4773 234.611 41.2774 234.951 41.2774H237.993C238.584 41.2774 239.04 41.1849 239.362 41C239.362 41.519 239.186 41.8471 238.834 41.9843C238.626 42.0619 238.247 42.1007 237.698 42.1007C236.767 42.1007 235.837 41.9993 234.906 41.7964C234.852 41.7845 234.802 41.7726 234.754 41.7606L233.94 47.2103C234.22 46.9478 234.828 46.8046 235.765 46.7808C235.908 46.7808 236.084 46.7808 236.293 46.7808C237.146 46.7808 237.773 46.7987 238.172 46.8345C238.13 47.1327 238.041 47.3952 237.904 47.6219Z" stroke="#A16A51" stroke-width="0.6" mask="url(#path-7-outside-1_504_450)"></path><path d="M244.4 49.3221C244.186 49.3937 243.953 49.4295 243.702 49.4295H241.707C241.343 49.4295 241.012 49.4504 240.714 49.4922C240.099 51.1626 239.619 52.2006 239.273 52.6063C239.064 52.8449 238.799 52.9761 238.477 53C238.423 53 238.36 53 238.289 53C239.034 51.9441 239.926 49.9336 240.964 46.9687L242.799 41.7159C242.972 41.4236 243.198 41.2506 243.479 41.1969C243.521 41.1909 243.559 41.1879 243.595 41.1879C243.72 41.1879 243.819 41.2088 243.89 41.2506L245.116 47.8188C245.516 49.9128 245.955 51.6219 246.432 52.9463C246.318 52.9821 246.214 53 246.119 53C245.844 52.994 245.611 52.8717 245.421 52.6331C245.116 52.2334 244.809 51.2938 244.499 49.8143C244.469 49.6592 244.436 49.4952 244.4 49.3221ZM244.293 48.7852C244.251 48.5764 244.207 48.3289 244.159 48.0425L243.139 42.5034L241.51 47.2461C241.462 47.3893 241.391 47.5981 241.295 47.8725C241.128 48.3617 241.006 48.7107 240.928 48.9195C241.268 48.8061 241.892 48.7494 242.799 48.7494C243.342 48.7494 243.84 48.7614 244.293 48.7852Z" stroke="#A16A51" stroke-width="0.6" mask="url(#path-7-outside-1_504_450)"></path><path d="M252.624 42.0828C252.272 42.0828 251.771 42.0708 251.121 42.047C250.984 42.041 250.84 42.038 250.691 42.038L249.063 52.9105H248.114L249.752 42.0112C249.543 42.0112 249.352 42.0112 249.179 42.0112C247.747 42.0112 246.802 42.0798 246.342 42.217C246.342 41.9485 246.503 41.7338 246.826 41.5727C246.903 41.5369 246.981 41.5071 247.058 41.4832C247.607 41.346 249.012 41.2774 251.273 41.2774C252.579 41.2774 253.459 41.2983 253.913 41.34C253.835 41.8292 253.406 42.0768 252.624 42.0828Z" stroke="#A16A51" stroke-width="0.6" mask="url(#path-7-outside-1_504_450)"></path><path d="M261.957 41.2774H262.826L261.089 52.9105H260.23L261.036 47.4698H256.409C256.045 49.7666 255.694 51.2759 255.353 51.9978C255.091 52.5645 254.745 52.8896 254.315 52.9732C254.22 52.9911 254.122 53 254.02 53C253.847 52.994 253.713 52.9553 253.617 52.8837C254.059 52.5078 254.408 51.9351 254.664 51.1655C254.987 50.223 255.371 48.3318 255.819 45.4922C255.956 44.6092 256.141 43.3893 256.374 41.8322C255.413 41.8382 254.712 41.8859 254.271 41.9754C254.295 41.6532 254.491 41.4444 254.861 41.349C255.154 41.2774 255.586 41.2416 256.159 41.2416C256.433 41.2416 256.818 41.2535 257.313 41.2774L257.179 42.226C256.881 44.3318 256.66 45.8561 256.517 46.7987H261.134L261.957 41.2774Z" stroke="#A16A51" stroke-width="0.6" mask="url(#path-7-outside-1_504_450)"></path><path d="M268.83 47.6219C268.227 47.5623 267.383 47.5324 266.298 47.5324C265.725 47.5324 265.227 47.5682 264.803 47.6398L264.132 52.1409H265.412C266.939 52.1409 267.965 52.0902 268.49 51.9888C268.687 51.9471 268.866 51.8993 269.027 51.8456C268.997 52.5019 268.603 52.8777 267.846 52.9732C267.702 52.9911 267.547 53 267.38 53C266.39 53 265.292 52.8628 264.087 52.5884C263.688 52.4929 263.377 52.4034 263.157 52.3199L264.32 44.5615C264.517 43.2431 264.749 42.3482 265.018 41.877C265.251 41.4773 265.537 41.2774 265.877 41.2774H268.919C269.51 41.2774 269.966 41.1849 270.289 41C270.289 41.519 270.113 41.8471 269.761 41.9843C269.552 42.0619 269.173 42.1007 268.624 42.1007C267.694 42.1007 266.763 41.9993 265.832 41.7964C265.779 41.7845 265.728 41.7726 265.68 41.7606L264.866 47.2103C265.146 46.9478 265.755 46.8046 266.691 46.7808C266.834 46.7808 267.01 46.7808 267.219 46.7808C268.072 46.7808 268.699 46.7987 269.098 46.8345C269.057 47.1327 268.967 47.3952 268.83 47.6219Z" stroke="#A16A51" stroke-width="0.6" mask="url(#path-7-outside-1_504_450)"></path><path d="M274.745 47.6488C275.27 48.0067 275.819 48.6421 276.391 49.5548C276.451 49.6443 276.511 49.7368 276.57 49.8322C277.382 51.1566 278.074 52.138 278.647 52.7763C278.7 52.83 278.751 52.8837 278.799 52.9374C278.661 52.9791 278.521 53 278.378 53C277.871 53 277.346 52.6152 276.803 51.8456C276.576 51.5235 276.308 51.085 275.998 50.5302C275.169 49.0507 274.509 48.123 274.02 47.7472C273.865 47.6339 273.722 47.5593 273.591 47.5235L273.68 47.1745H273.966C274.975 47.1745 275.81 46.9001 276.472 46.3512C277.158 45.7785 277.504 45.0149 277.51 44.0604C277.51 43.094 277.113 42.4079 276.32 42.0022C275.878 41.7755 275.35 41.6622 274.736 41.6622C274.462 41.6622 274.178 41.6801 273.886 41.7159L272.204 52.9105H271.255L272.911 41.9038C272.123 42.0947 271.431 42.3632 270.834 42.7092C270.834 42.2975 271.24 41.9426 272.051 41.6443C272.887 41.34 273.811 41.1879 274.826 41.1879C275.935 41.1879 276.839 41.4594 277.537 42.0022C278.205 42.5272 278.542 43.2073 278.548 44.0425C278.548 44.9075 278.205 45.689 277.519 46.387C276.893 47.0254 276.156 47.4251 275.309 47.5861C275.118 47.6219 274.93 47.6428 274.745 47.6488Z" stroke="#A16A51" stroke-width="0.6" mask="url(#path-7-outside-1_504_450)"></path></svg>